<?xml version="1.0" encoding="UTF-8" standalone="no"?>
<!-- Created with Inkscape (http://www.inkscape.org/) -->

<svg
   xmlns:dc="http://purl.org/dc/elements/1.1/"
   xmlns:cc="http://creativecommons.org/ns#"
   xmlns:rdf="http://www.w3.org/1999/02/22-rdf-syntax-ns#"
   xmlns:svg="http://www.w3.org/2000/svg"
   xmlns="http://www.w3.org/2000/svg"
   xmlns:sodipodi="http://sodipodi.sourceforge.net/DTD/sodipodi-0.dtd"
   xmlns:inkscape="http://www.inkscape.org/namespaces/inkscape"
   version="1.0"
   width="555.22198"
   height="351.66797"
   id="svg9559"
   sodipodi:version="0.32"
   inkscape:version="0.48.3.1 r9886"
   sodipodi:docname="counties.svg"
   inkscape:output_extension="org.inkscape.output.svg.inkscape">
  <metadata
     id="metadata3671">
    <rdf:RDF>
      <cc:Work
         rdf:about="">
        <dc:format>image/svg+xml</dc:format>
        <dc:type
           rdf:resource="http://purl.org/dc/dcmitype/StillImage" />
      </cc:Work>
    </rdf:RDF>
  </metadata>
  <sodipodi:namedview
     inkscape:window-height="1000"
     inkscape:window-width="1280"
     inkscape:pageshadow="2"
     inkscape:pageopacity="0.0"
     guidetolerance="10.0"
     gridtolerance="10.0"
     objecttolerance="10.0"
     borderopacity="1.0"
     bordercolor="#666666"
     pagecolor="#ffffff"
     id="base"
     inkscape:zoom="8.2733816"
     inkscape:cx="447.79913"
     inkscape:cy="147.15594"
     inkscape:window-x="0"
     inkscape:window-y="35"
     inkscape:current-layer="svg9559"
     showguides="true"
     inkscape:guide-bbox="true"
     showgrid="false"
     inkscape:window-maximized="0" />
  <defs
     id="defs9561" />
  <path
     style="font-size:12px;fill:#006bb1;fill-opacity:1;fill-rule:nonzero;stroke:#ffffff;stroke-width:0.1;stroke-linecap:butt;stroke-linejoin:bevel;stroke-miterlimit:4;stroke-opacity:1;stroke-dasharray:none;marker-start:none"
     d="m 420.37371,198.29164 2.65543,2.1225 -0.6905,0.0146 -4.06534,0.0297 -0.72411,-0.005 2.82452,-2.16169"
     id="37043"
     inkscape:label="Clay, NC"
     inkscape:connector-curvature="0" />
  <path
     style="font-size:12px;fill:#006bb1;fill-opacity:1;fill-rule:nonzero;stroke:#ffffff;stroke-width:0.1;stroke-linecap:butt;stroke-linejoin:bevel;stroke-miterlimit:4;stroke-opacity:1;stroke-dasharray:none;marker-start:none"
     d="m 424.56073,196.04467 2.40458,4.29562 -3.93617,0.0738 -2.65543,-2.1225 0.38358,-1.19776 0.23703,-0.40032 0.0792,-0.0395 2.30332,-0.37723 1.18393,-0.23212"
     id="37113"
     inkscape:label="Macon, NC"
     inkscape:connector-curvature="0" />
  <path
     style="font-size:12px;fill:#006bb1;fill-opacity:1;fill-rule:nonzero;stroke:#ffffff;stroke-width:0.1;stroke-linecap:butt;stroke-linejoin:bevel;stroke-miterlimit:4;stroke-opacity:1;stroke-dasharray:none;marker-start:none"
     d="m 430.7724,194.85987 1.1736,1.37662 0.24011,0.36632 0.0654,0.38155 0.003,0.47785 0.14357,0.78 0.0579,0.13621 0.12401,0.0888 -2.00336,0.99714 -1.39074,0.1581 -1.16234,0.37541 0.91586,-3.43496 1.8334,-1.70305"
     id="37175"
     inkscape:label="Transylvania, NC"
     inkscape:connector-curvature="0" />
  <path
     style="font-size:12px;fill:#006bb1;fill-opacity:1;fill-rule:nonzero;stroke:#ffffff;stroke-width:0.1;stroke-linecap:butt;stroke-linejoin:bevel;stroke-miterlimit:4;stroke-opacity:1;stroke-dasharray:none;marker-start:none"
     d="m 426.17213,193.6689 2.76687,2.89402 -0.91586,3.43496 -1.05783,0.34241 -2.40458,-4.29562 1.6114,-2.37577"
     id="37099"
     inkscape:label="Jackson, NC"
     inkscape:connector-curvature="0" />
  <path
     style="font-size:12px;fill:#006bb1;fill-opacity:1;fill-rule:nonzero;stroke:#ffffff;stroke-width:0.1;stroke-linecap:butt;stroke-linejoin:bevel;stroke-miterlimit:4;stroke-opacity:1;stroke-dasharray:none;marker-start:none"
     d="m 428.48959,190.041 0.82869,1.50562 1.45412,3.31325 -1.8334,1.70305 -2.76687,-2.89402 -0.70785,-2.3581 -0.011,-0.24885 3.03635,-1.02095"
     id="37087"
     inkscape:label="Haywood, NC"
     inkscape:connector-curvature="0" />
  <path
     style="font-size:12px;fill:#006bb1;fill-opacity:1;fill-rule:nonzero;stroke:#ffffff;stroke-width:0.1;stroke-linecap:butt;stroke-linejoin:bevel;stroke-miterlimit:4;stroke-opacity:1;stroke-dasharray:none;marker-start:none"
     d="m 425.46428,191.3108 0.70785,2.3581 -1.6114,2.37577 -1.18393,0.23212 -2.30332,0.37723 -0.0792,0.0395 -0.15806,-0.23687 0.0131,-0.12437 0.10281,-0.21798 0.0638,-0.0598 0.19859,-0.0856 0.25341,-0.0659 0.15472,-0.0604 0.28242,-0.46572 0.0923,-0.31028 0.0102,-0.13991 -0.0119,-0.24291 -0.57896,-0.1204 -3.25034,-0.25031 3.03371,-1.38171 0.0489,0.0118 0.18667,0.0298 1.47994,0.0511 0.13703,-0.0639 1.966,-1.15776 0.4455,-0.49164"
     id="37173"
     inkscape:label="Swain, NC"
     inkscape:connector-curvature="0" />
  <path
     style="font-size:12px;fill:#006bb1;fill-opacity:1;fill-rule:nonzero;stroke:#ffffff;stroke-width:0.1;stroke-linecap:butt;stroke-linejoin:bevel;stroke-miterlimit:4;stroke-opacity:1;stroke-dasharray:none;marker-start:none"
     d="m 418.16658,194.31304 3.25034,0.25031 0.57896,0.1204 0.0119,0.24291 -0.0102,0.13991 -0.0923,0.31028 -0.28242,0.46572 -0.15472,0.0604 -0.25341,0.0659 -0.19859,0.0856 -0.0638,0.0598 -0.10281,0.21798 -0.0131,0.12437 0.15806,0.23687 -0.23703,0.40032 -1.93582,0.15041 -0.75088,0.23239 -0.10005,-0.0138 -0.35295,-0.20727 -0.26761,-0.75172 0.73552,-2.23232 0.0811,0.0415"
     id="37075"
     inkscape:label="Graham, NC"
     inkscape:connector-curvature="0" />
  <path
     style="font-size:12px;fill:#006bb1;fill-opacity:1;fill-rule:nonzero;stroke:#ffffff;stroke-width:0.1;stroke-linecap:butt;stroke-linejoin:bevel;stroke-miterlimit:4;stroke-opacity:1;stroke-dasharray:none;marker-start:none"
     d="m 420.75729,197.09388 -0.38358,1.19776 -2.82452,2.16169 -1.30202,-0.0164 -2.02027,-0.042 0.35138,-2.82752 0.9444,-0.62459 1.10424,0.12534 0.43577,-0.26786 0.28729,-0.29647 0.26761,0.75172 0.35295,0.20727 0.10005,0.0138 0.75088,-0.23239 1.93582,-0.15041"
     id="37039"
     inkscape:label="Cherokee, NC"
     inkscape:connector-curvature="0" />
  <path
     style="font-size:12px;fill:#006bb1;fill-opacity:1;fill-rule:nonzero;stroke:#ffffff;stroke-width:0.1;stroke-linecap:butt;stroke-linejoin:bevel;stroke-miterlimit:4;stroke-opacity:1;stroke-dasharray:none;marker-start:none"
     d="m 437.62252,185.95075 1.05391,2.51294 -1.55988,1.14827 -0.13955,-1.13782 -0.0791,-0.21686 -0.43703,-1.05981 -0.0395,-0.065 -1.60253,-0.88067 -0.66724,0.1531 2.00923,-1.10535 1.46162,0.65122"
     id="37121"
     inkscape:label="Mitchell, NC"
     inkscape:connector-curvature="0" />
  <path
     style="font-size:12px;fill:#006bb1;fill-opacity:1;fill-rule:nonzero;stroke:#ffffff;stroke-width:0.1;stroke-linecap:butt;stroke-linejoin:bevel;stroke-miterlimit:4;stroke-opacity:1;stroke-dasharray:none;marker-start:none"
     d="m 434.15167,186.40488 0.66724,-0.1531 1.60253,0.88067 0.0395,0.065 0.43703,1.05981 0.0791,0.21686 0.13955,1.13782 -1.46335,1.56743 -1.3993,-1.46738 -1.01317,-2.07725 0.91094,-1.22988"
     id="37199"
     inkscape:label="Yancey, NC"
     inkscape:connector-curvature="0" />
  <path
     style="font-size:12px;fill:#006bb1;fill-opacity:1;fill-rule:nonzero;stroke:#ffffff;stroke-width:0.1;stroke-linecap:butt;stroke-linejoin:bevel;stroke-miterlimit:4;stroke-opacity:1;stroke-dasharray:none;marker-start:none"
     d="m 432.22948,186.84387 1.01125,0.79089 1.01317,2.07725 -1.00806,0.21604 -0.61153,0.27588 -0.36245,0.19017 -0.7075,0.37871 -1.42107,0.66977 -0.82501,0.10404 -0.82869,-1.50562 0.67356,-1.95924 0.47776,-0.0531 1.01807,-0.7194 0.72951,-0.54526 0.19723,-0.10499 0.28541,-0.15136 0.0496,-0.001 0.14013,0.11829 -6.8e-4,0.005 0.16927,0.21418"
     id="37115"
     inkscape:label="Madison, NC"
     inkscape:connector-curvature="0" />
  <path
     style="font-size:12px;fill:#006bb1;fill-opacity:1;fill-rule:nonzero;stroke:#ffffff;stroke-width:0.1;stroke-linecap:butt;stroke-linejoin:bevel;stroke-miterlimit:4;stroke-opacity:1;stroke-dasharray:none;marker-start:none"
     d="m 435.6532,191.17939 1.12075,2.28493 -1.00063,0.79046 -0.70166,-0.41597 -0.74003,0.38028 -0.91641,0.34176 -0.81222,0.1795 -0.46789,-0.10605 -0.31096,-0.11667 -0.10017,-0.0714 -0.19517,-0.0633 -0.33311,0.0802 -0.10959,0.0626 -0.31371,0.3342 -1.45412,-3.31325 0.82501,-0.10404 1.42107,-0.66977 0.7075,-0.37871 0.36245,-0.19017 0.61153,-0.27588 1.00806,-0.21604 1.3993,1.46738"
     id="37021"
     inkscape:label="Buncombe, NC"
     inkscape:connector-curvature="0" />
  <path
     style="font-size:12px;fill:#006bb1;fill-opacity:1;fill-rule:nonzero;stroke:#ffffff;stroke-width:0.1;stroke-linecap:butt;stroke-linejoin:bevel;stroke-miterlimit:4;stroke-opacity:1;stroke-dasharray:none;marker-start:none"
     d="m 435.77332,194.25478 0.0531,0.96738 -0.96574,2.4226 -2.28107,0.82247 -0.12401,-0.0888 -0.0579,-0.13621 -0.14357,-0.78 -0.003,-0.47785 -0.0654,-0.38155 -0.24011,-0.36632 -1.1736,-1.37662 0.31371,-0.3342 0.10959,-0.0626 0.33311,-0.0802 0.19517,0.0633 0.10017,0.0714 0.31096,0.11667 0.46789,0.10605 0.81222,-0.1795 0.91641,-0.34176 0.74003,-0.38028 0.70166,0.41597"
     id="37089"
     inkscape:label="Henderson, NC"
     inkscape:connector-curvature="0" />
  <path
     style="font-size:12px;fill:#006bb1;fill-opacity:1;fill-rule:nonzero;stroke:#ffffff;stroke-width:0.1;stroke-linecap:butt;stroke-linejoin:bevel;stroke-miterlimit:4;stroke-opacity:1;stroke-dasharray:none;marker-start:none"
     d="m 438.90424,197.86741 -2.59014,-0.0894 -1.45345,-0.13322 0.96574,-2.4226 0.64089,-0.1305 0.41694,-0.0877 0.0923,0.0259 0.30264,0.18416 0.13773,0.12099 1.4422,1.60252 0.0806,0.18377 -0.0355,0.74617"
     id="37149"
     inkscape:label="Polk, NC"
     inkscape:connector-curvature="0" />
  <path
     style="font-size:12px;fill:#006bb1;fill-opacity:1;fill-rule:nonzero;stroke:#ffffff;stroke-width:0.1;stroke-linecap:butt;stroke-linejoin:bevel;stroke-miterlimit:4;stroke-opacity:1;stroke-dasharray:none;marker-start:none"
     d="m 441.73951,192.73522 -0.0726,2.89229 -0.57037,1.76049 -0.0848,0.54756 -1.11403,-0.0399 -0.99348,-0.0283 0.0355,-0.74617 -0.0806,-0.18377 -1.4422,-1.60252 -0.13773,-0.12099 -0.30264,-0.18416 -0.0923,-0.0259 -0.41694,0.0877 -0.64089,0.1305 -0.0531,-0.96738 1.00063,-0.79046 3.58806,-0.64488 1.3775,-0.0842"
     id="37161"
     inkscape:label="Rutherford, NC"
     inkscape:connector-curvature="0" />
  <path
     style="font-size:12px;fill:#006bb1;fill-opacity:1;fill-rule:nonzero;stroke:#ffffff;stroke-width:0.1;stroke-linecap:butt;stroke-linejoin:bevel;stroke-miterlimit:4;stroke-opacity:1;stroke-dasharray:none;marker-start:none"
     d="m 438.67643,188.46369 0.39016,-0.62447 0.0667,0.0506 0.0629,0.10761 0.17619,0.39787 0.0408,0.12879 0.0468,0.2972 -0.13502,0.47297 0.54537,1.64918 0.49181,1.87599 -3.58806,0.64488 -1.12075,-2.28493 1.46335,-1.56743 1.55988,-1.14827"
     id="37111"
     inkscape:label="McDowell, NC"
     inkscape:connector-curvature="0" />
  <path
     style="font-size:12px;fill:#006bb1;fill-opacity:1;fill-rule:nonzero;stroke:#ffffff;stroke-width:0.1;stroke-linecap:butt;stroke-linejoin:bevel;stroke-miterlimit:4;stroke-opacity:1;stroke-dasharray:none;marker-start:none"
     d="m 439.13345,183.87101 0.14956,-0.29328 1.12916,2.26792 0.0677,1.94256 -1.41329,0.051 -0.39016,0.62447 -1.05391,-2.51294 1.51093,-2.07974"
     id="37011"
     inkscape:label="Avery, NC"
     inkscape:connector-curvature="0" />
  <path
     style="font-size:12px;fill:#006bb1;fill-opacity:1;fill-rule:nonzero;stroke:#ffffff;stroke-width:0.1;stroke-linecap:butt;stroke-linejoin:bevel;stroke-miterlimit:4;stroke-opacity:1;stroke-dasharray:none;marker-start:none"
     d="m 441.30466,182.25099 0.85697,0.48286 0.52108,0.60503 0.3537,0.34063 0.80563,0.45255 -0.67561,1.60159 -2.75426,0.112 -1.12916,-2.26792 0.10362,-0.19465 0.54223,-0.46111 0.55735,-0.27833 0.0142,-0.008 0.0577,-0.0233 0.0431,0.15537 0.25569,0.12215 0.16058,0.0141 0.0188,0.003 0.22283,-0.0419 0.0454,-0.61356"
     id="37189"
     inkscape:label="Watauga, NC"
     inkscape:connector-curvature="0" />
  <path
     style="font-size:12px;fill:#006bb1;fill-opacity:1;fill-rule:nonzero;stroke:#ffffff;stroke-width:0.1;stroke-linecap:butt;stroke-linejoin:bevel;stroke-miterlimit:4;stroke-opacity:1;stroke-dasharray:none;marker-start:none"
     d="m 448.52523,186.57113 -0.79958,3.47021 -2.30486,-0.17416 0.0181,-2.6 0.61712,-0.38212 0.31531,-0.0756 0.47989,-0.0831 0.15995,0.0625 0.72758,-0.0711 0.58992,-0.083 0.19657,-0.0637"
     id="37003"
     inkscape:label="Alexander, NC"
     inkscape:connector-curvature="0" />
  <path
     style="font-size:12px;fill:#006bb1;fill-opacity:1;fill-rule:nonzero;stroke:#ffffff;stroke-width:0.1;stroke-linecap:butt;stroke-linejoin:bevel;stroke-miterlimit:4;stroke-opacity:1;stroke-dasharray:none;marker-start:none"
     d="m 441.71516,179.63859 3.33644,0.12391 0.006,0.25921 0.53832,1.03544 0.31998,0.35818 0.0759,0.17402 0.16199,0.50796 0.004,0.39229 -2.31565,1.64246 -0.80563,-0.45255 -0.3537,-0.34063 -0.52108,-0.60503 -0.85697,-0.48286 0.4105,-2.6124"
     id="37009"
     inkscape:label="Ashe, NC"
     inkscape:connector-curvature="0" />
  <path
     style="font-size:12px;fill:#006bb1;fill-opacity:1;fill-rule:nonzero;stroke:#ffffff;stroke-width:0.1;stroke-linecap:butt;stroke-linejoin:bevel;stroke-miterlimit:4;stroke-opacity:1;stroke-dasharray:none;marker-start:none"
     d="m 449.69968,179.84054 -0.63092,2.09637 -0.13967,0.3532 -0.47994,0.0104 -0.16616,-0.24404 -0.009,-0.2244 -0.41581,-0.28561 -0.0775,-0.0238 -0.6744,0.10264 -0.94825,0.86433 -0.004,-0.39229 -0.16199,-0.50796 -0.0759,-0.17402 -0.31998,-0.35818 -0.53832,-1.03544 -0.006,-0.25921 4.64808,0.078"
     id="37005"
     inkscape:label="Alleghany, NC"
     inkscape:connector-curvature="0" />
  <path
     style="font-size:12px;fill:#006bb1;fill-opacity:1;fill-rule:nonzero;stroke:#ffffff;stroke-width:0.1;stroke-linecap:butt;stroke-linejoin:bevel;stroke-miterlimit:4;stroke-opacity:1;stroke-dasharray:none;marker-start:none"
     d="m 446.15769,182.4896 0.94825,-0.86433 0.6744,-0.10264 0.0775,0.0238 0.41581,0.28561 0.009,0.2244 0.16616,0.24404 0.47994,-0.0104 0.13967,-0.3532 1.01777,2.12433 -0.0433,2.35121 -1.51802,0.15868 -0.19657,0.0637 -0.58992,0.083 -0.72758,0.0711 -0.15995,-0.0625 -0.47989,0.0831 -0.31531,0.0756 -0.61712,0.38212 -2.27246,-1.53353 0.67561,-1.60159 2.31565,-1.64246"
     id="37193"
     inkscape:label="Wilkes, NC"
     inkscape:connector-curvature="0" />
  <path
     style="font-size:12px;fill:#006bb1;fill-opacity:1;fill-rule:nonzero;stroke:#ffffff;stroke-width:0.1;stroke-linecap:butt;stroke-linejoin:bevel;stroke-miterlimit:4;stroke-opacity:1;stroke-dasharray:none;marker-start:none"
     d="m 440.41217,185.84565 2.75426,-0.112 2.27246,1.53353 -0.0181,2.6 -0.30261,0.37813 -0.14149,0.13995 -0.22224,-0.0135 -1.63515,-0.22093 -1.81625,-1.47452 -0.754,-0.76038 -0.0692,-0.12767 -0.0677,-1.94256"
     id="37027"
     inkscape:label="Caldwell, NC"
     inkscape:connector-curvature="0" />
  <path
     style="font-size:12px;fill:#006bb1;fill-opacity:1;fill-rule:nonzero;stroke:#ffffff;stroke-width:0.1;stroke-linecap:butt;stroke-linejoin:bevel;stroke-miterlimit:4;stroke-opacity:1;stroke-dasharray:none;marker-start:none"
     d="m 440.47988,187.78821 0.0692,0.12767 0.754,0.76038 1.81625,1.47452 1.63515,0.22093 0.22224,0.0135 0.14149,-0.13995 -1.73506,2.61308 -0.0313,0.0583 -1.61234,-0.18144 -1.3775,0.0842 -0.49181,-1.87599 -0.54537,-1.64918 0.13502,-0.47297 -0.0468,-0.2972 -0.0408,-0.12879 -0.17619,-0.39787 -0.0629,-0.10761 -0.0667,-0.0506 1.41329,-0.051"
     id="37023"
     inkscape:label="Burke, NC"
     inkscape:connector-curvature="0" />
  <path
     style="font-size:12px;fill:#006bb1;fill-opacity:1;fill-rule:nonzero;stroke:#ffffff;stroke-width:0.1;stroke-linecap:butt;stroke-linejoin:bevel;stroke-miterlimit:4;stroke-opacity:1;stroke-dasharray:none;marker-start:none"
     d="m 443.35185,192.91666 0.87502,1.86433 1.39963,3.30573 -0.40765,-0.016 -4.2071,-0.1352 0.0848,-0.54756 0.57037,-1.76049 0.0726,-2.89229 1.61234,0.18144"
     id="37045"
     inkscape:label="Cleveland, NC"
     inkscape:connector-curvature="0" />
  <path
     style="font-size:12px;fill:#006bb1;fill-opacity:1;fill-rule:nonzero;stroke:#ffffff;stroke-width:0.1;stroke-linecap:butt;stroke-linejoin:bevel;stroke-miterlimit:4;stroke-opacity:1;stroke-dasharray:none;marker-start:none"
     d="m 444.22687,194.78099 5.23529,0.14607 -0.85256,3.29834 -2.9831,-0.13868 -1.39963,-3.30573"
     id="37071"
     inkscape:label="Gaston, NC"
     inkscape:connector-curvature="0" />
  <path
     style="font-size:12px;fill:#006bb1;fill-opacity:1;fill-rule:nonzero;stroke:#ffffff;stroke-width:0.1;stroke-linecap:butt;stroke-linejoin:bevel;stroke-miterlimit:4;stroke-opacity:1;stroke-dasharray:none;marker-start:none"
     d="m 449.3761,193.02235 0.15119,0.776 -0.0651,1.12871 -5.23529,-0.14607 -0.87502,-1.86433 0.0313,-0.0583 5.99298,0.16396"
     id="37109"
     inkscape:label="Lincoln, NC"
     inkscape:connector-curvature="0" />
  <path
     style="font-size:12px;fill:#006bb1;fill-opacity:1;fill-rule:nonzero;stroke:#ffffff;stroke-width:0.1;stroke-linecap:butt;stroke-linejoin:bevel;stroke-miterlimit:4;stroke-opacity:1;stroke-dasharray:none;marker-start:none"
     d="m 445.42079,189.86718 2.30486,0.17416 1.22371,0.95552 0.32355,0.42731 0.40303,0.70683 -0.29984,0.89135 -5.99298,-0.16396 1.73506,-2.61308 0.30261,-0.37813"
     id="37035"
     inkscape:label="Catawba, NC"
     inkscape:connector-curvature="0" />
  <path
     style="font-size:12px;fill:#006bb1;fill-opacity:1;fill-rule:nonzero;stroke:#ffffff;stroke-width:0.1;stroke-linecap:butt;stroke-linejoin:bevel;stroke-miterlimit:4;stroke-opacity:1;stroke-dasharray:none;marker-start:none"
     d="m 450.04325,186.41245 1.96286,0.0118 -0.0961,2.58013 -0.42533,1.62406 -0.18235,0.69862 0.36721,1.68917 0.0331,0.24988 0.009,0.23345 -0.49295,0.01 -1.69151,0.28916 -0.15119,-0.776 0.29984,-0.89135 -0.40303,-0.70683 -0.32355,-0.42731 -1.22371,-0.95552 0.79958,-3.47021 1.51802,-0.15868"
     id="37097"
     inkscape:label="Iredell, NC"
     inkscape:connector-curvature="0" />
  <path
     style="font-size:12px;fill:#006bb1;fill-opacity:1;fill-rule:nonzero;stroke:#ffffff;stroke-width:0.1;stroke-linecap:butt;stroke-linejoin:bevel;stroke-miterlimit:4;stroke-opacity:1;stroke-dasharray:none;marker-start:none"
     d="m 449.52729,193.79835 1.69151,-0.28916 -0.0218,0.0919 0.002,0.0871 0.24062,1.18812 1.08732,1.71601 1.23105,0.73444 -2.97976,2.75906 -0.71293,-0.96266 -1.45581,-0.89775 0.85256,-3.29834 0.0651,-1.12871"
     id="37119"
     inkscape:label="Mecklenburg, NC"
     inkscape:connector-curvature="0" />
  <path
     style="font-size:12px;fill:#006bb1;fill-opacity:1;fill-rule:nonzero;stroke:#ffffff;stroke-width:0.1;stroke-linecap:butt;stroke-linejoin:bevel;stroke-miterlimit:4;stroke-opacity:1;stroke-dasharray:none;marker-start:none"
     d="m 451.90999,189.0044 2.62298,1.36392 1.32313,0.27269 1.34395,1.76561 0.29184,0.97816 -1.17585,0.0495 -4.60429,0.0653 -0.009,-0.23345 -0.0331,-0.24988 -0.36721,-1.68917 0.18235,-0.69862 0.42533,-1.62406"
     id="37159"
     inkscape:label="Rowan, NC"
     inkscape:connector-curvature="0" />
  <path
     style="font-size:12px;fill:#006bb1;fill-opacity:1;fill-rule:nonzero;stroke:#ffffff;stroke-width:0.1;stroke-linecap:butt;stroke-linejoin:bevel;stroke-miterlimit:4;stroke-opacity:1;stroke-dasharray:none;marker-start:none"
     d="m 452.00611,186.42427 2.03456,0.0116 1.07182,0.92241 0.17298,0.1289 0.0471,0.0974 0.0736,0.35138 0.003,0.35977 -0.19531,0.74124 -0.42022,0.20642 -0.26045,1.12494 -2.62298,-1.36392 0.0961,-2.58013"
     id="37059"
     inkscape:label="Davie, NC"
     inkscape:connector-curvature="0" />
  <path
     style="font-size:12px;fill:#006bb1;fill-opacity:1;fill-rule:nonzero;stroke:#ffffff;stroke-width:0.1;stroke-linecap:butt;stroke-linejoin:bevel;stroke-miterlimit:4;stroke-opacity:1;stroke-dasharray:none;marker-start:none"
     d="m 454.43154,183.89246 -0.39087,2.54344 -2.03456,-0.0116 -1.96286,-0.0118 0.0433,-2.35121 0.94998,-0.42395 1.56515,-0.30258 0.60549,0.0746 0.91888,0.29053 0.20565,0.0971 0.0999,0.0956"
     id="37197"
     inkscape:label="Yadkin, NC"
     inkscape:connector-curvature="0" />
  <path
     style="font-size:12px;fill:#006bb1;fill-opacity:1;fill-rule:nonzero;stroke:#ffffff;stroke-width:0.1;stroke-linecap:butt;stroke-linejoin:bevel;stroke-miterlimit:4;stroke-opacity:1;stroke-dasharray:none;marker-start:none"
     d="m 452.67965,179.81929 1.77128,0.054 -0.0222,3.75431 0.003,0.26487 -0.0999,-0.0956 -0.20565,-0.0971 -0.91888,-0.29053 -0.60549,-0.0746 -1.56515,0.30258 -0.94998,0.42395 -1.01777,-2.12433 0.63092,-2.09637 0.65715,0.0222 2.32282,-0.0434"
     id="37171"
     inkscape:label="Surry, NC"
     inkscape:connector-curvature="0" />
  <path
     style="font-size:12px;fill:#006bb1;fill-opacity:1;fill-rule:nonzero;stroke:#ffffff;stroke-width:0.1;stroke-linecap:butt;stroke-linejoin:bevel;stroke-miterlimit:4;stroke-opacity:1;stroke-dasharray:none;marker-start:none"
     d="m 458.69735,179.85543 0.0298,3.70698 -4.29839,0.0652 0.0222,-3.75431 3.97677,-0.01 0.26965,-0.008"
     id="37169"
     inkscape:label="Stokes, NC"
     inkscape:connector-curvature="0" />
  <path
     style="font-size:12px;fill:#006bb1;fill-opacity:1;fill-rule:nonzero;stroke:#ffffff;stroke-width:0.1;stroke-linecap:butt;stroke-linejoin:bevel;stroke-miterlimit:4;stroke-opacity:1;stroke-dasharray:none;marker-start:none"
     d="m 454.42877,183.62759 4.29839,-0.0652 0.0202,3.20695 -3.63484,0.58895 -1.07182,-0.92241 0.39087,-2.54344 -0.003,-0.26487"
     id="37067"
     inkscape:label="Forsyth, NC"
     inkscape:connector-curvature="0" />
  <path
     style="font-size:12px;fill:#006bb1;fill-opacity:1;fill-rule:nonzero;stroke:#ffffff;stroke-width:0.1;stroke-linecap:butt;stroke-linejoin:bevel;stroke-miterlimit:4;stroke-opacity:1;stroke-dasharray:none;marker-start:none"
     d="m 455.11249,187.35831 3.63484,-0.58895 -0.007,1.16805 -0.0383,5.3905 -1.21018,0.0569 -0.29184,-0.97816 -1.34395,-1.76561 -1.32313,-0.27269 0.26045,-1.12494 0.42022,-0.20642 0.19531,-0.74124 -0.003,-0.35977 -0.0736,-0.35138 -0.0471,-0.0974 -0.17298,-0.1289"
     id="37057"
     inkscape:label="Davidson, NC"
     inkscape:connector-curvature="0" />
  <path
     style="font-size:12px;fill:#006bb1;fill-opacity:1;fill-rule:nonzero;stroke:#ffffff;stroke-width:0.1;stroke-linecap:butt;stroke-linejoin:bevel;stroke-miterlimit:4;stroke-opacity:1;stroke-dasharray:none;marker-start:none"
     d="m 456.31604,193.43428 1.17585,-0.0495 0.73504,0.51043 0.0569,0.0482 0.37359,0.82491 0.13615,0.42463 0.17633,2.37651 0.004,0.0773 -0.0348,0.1133 -0.18894,0.27876 -2.13227,-0.6268 -2.38219,0.2028 2.07989,-4.18063"
     id="37167"
     inkscape:label="Stanly, NC"
     inkscape:connector-curvature="0" />
  <path
     style="font-size:12px;fill:#006bb1;fill-opacity:1;fill-rule:nonzero;stroke:#ffffff;stroke-width:0.1;stroke-linecap:butt;stroke-linejoin:bevel;stroke-miterlimit:4;stroke-opacity:1;stroke-dasharray:none;marker-start:none"
     d="m 456.31604,193.43428 -2.07989,4.18063 -0.47805,-0.28816 -1.23105,-0.73444 -1.08732,-1.71601 -0.24062,-1.18812 -0.002,-0.0871 0.0218,-0.0919 0.49295,-0.01 4.60429,-0.0653"
     id="37025"
     inkscape:label="Cabarrus, NC"
     inkscape:connector-curvature="0" />
  <path
     style="font-size:12px;fill:#006bb1;fill-opacity:1;fill-rule:nonzero;stroke:#ffffff;stroke-width:0.1;stroke-linecap:butt;stroke-linejoin:bevel;stroke-miterlimit:4;stroke-opacity:1;stroke-dasharray:none;marker-start:none"
     d="m 456.61834,197.41211 -0.31529,4.96962 -2.53631,0.025 -2.27426,0.0209 -0.20453,-0.0686 0.0117,-0.12153 0.10883,-1.31347 -0.63019,-0.83816 2.97976,-2.75906 0.47805,0.28816 2.38219,-0.2028"
     id="37179"
     inkscape:label="Union, NC"
     inkscape:connector-curvature="0" />
  <path
     style="font-size:12px;fill:#006bb1;fill-opacity:1;fill-rule:nonzero;stroke:#ffffff;stroke-width:0.1;stroke-linecap:butt;stroke-linejoin:bevel;stroke-miterlimit:4;stroke-opacity:1;stroke-dasharray:none;marker-start:none"
     d="m 458.75061,198.03891 0.0113,0.11563 0.0838,0.28515 0.46094,0.25854 0.26759,0.0652 0.0557,-0.001 0.0699,-0.0459 0.0307,-0.0321 0.0496,-0.12539 0.23629,-0.19044 0.14383,-0.0619 0.16543,0.0229 0.15604,0.2588 0.22921,0.51826 0.51591,1.94998 -0.009,0.0674 -0.13444,0.22774 -0.64441,1.00323 -4.13564,0.0271 0.31529,-4.96962 2.13227,0.6268"
     id="37007"
     inkscape:label="Anson, NC"
     inkscape:connector-curvature="0" />
  <path
     style="font-size:12px;fill:#006bb1;fill-opacity:1;fill-rule:nonzero;stroke:#ffffff;stroke-width:0.1;stroke-linecap:butt;stroke-linejoin:bevel;stroke-miterlimit:4;stroke-opacity:1;stroke-dasharray:none;marker-start:none"
     d="m 461.90948,179.76127 2.10099,-0.0599 -0.0807,3.78357 -0.003,0.10863 -5.1997,-0.0311 -0.0298,-3.70698 3.21213,-0.0942"
     id="37157"
     inkscape:label="Rockingham, NC"
     inkscape:connector-curvature="0" />
  <path
     style="font-size:12px;fill:#006bb1;fill-opacity:1;fill-rule:nonzero;stroke:#ffffff;stroke-width:0.1;stroke-linecap:butt;stroke-linejoin:bevel;stroke-miterlimit:4;stroke-opacity:1;stroke-dasharray:none;marker-start:none"
     d="m 458.72716,183.56241 5.1997,0.0311 0.0606,4.44111 -5.24709,-0.0972 0.007,-1.16805 -0.0202,-3.20695"
     id="37081"
     inkscape:label="Guilford, NC"
     inkscape:connector-curvature="0" />
  <path
     style="font-size:12px;fill:#006bb1;fill-opacity:1;fill-rule:nonzero;stroke:#ffffff;stroke-width:0.1;stroke-linecap:butt;stroke-linejoin:bevel;stroke-miterlimit:4;stroke-opacity:1;stroke-dasharray:none;marker-start:none"
     d="m 463.98746,188.03463 0.0211,0.73077 0.0114,4.26371 -2.22316,0.12584 -3.09481,0.17296 0.0383,-5.3905 5.24709,0.0972"
     id="37151"
     inkscape:label="Randolph, NC"
     inkscape:connector-curvature="0" />
  <path
     style="font-size:12px;fill:#006bb1;fill-opacity:1;fill-rule:nonzero;stroke:#ffffff;stroke-width:0.1;stroke-linecap:butt;stroke-linejoin:bevel;stroke-miterlimit:4;stroke-opacity:1;stroke-dasharray:none;marker-start:none"
     d="m 461.79688,193.15495 0.69808,2.8817 0.009,0.16471 0.11775,0.26562 0.49084,0.7654 0.2146,0.22954 0.24747,0.15232 -1.04918,-0.0854 -1.44871,-0.0871 -0.59448,0.29136 -1.13161,0.32111 -0.23554,0.0169 -0.36402,-0.0321 0.18894,-0.27876 0.0348,-0.1133 -0.004,-0.0773 -0.17633,-2.37651 -0.13615,-0.42463 -0.37359,-0.82491 -0.0569,-0.0482 -0.73504,-0.51043 1.21018,-0.0569 3.09481,-0.17296"
     id="37123"
     inkscape:label="Montgomery, NC"
     inkscape:connector-curvature="0" />
  <path
     style="font-size:12px;fill:#006bb1;fill-opacity:1;fill-rule:nonzero;stroke:#ffffff;stroke-width:0.1;stroke-linecap:butt;stroke-linejoin:bevel;stroke-miterlimit:4;stroke-opacity:1;stroke-dasharray:none;marker-start:none"
     d="m 458.75061,198.03891 0.36402,0.0321 0.23554,-0.0169 1.13161,-0.32111 0.59448,-0.29136 1.44871,0.0871 1.04918,0.0854 1.68459,1.50679 -0.54832,0.24222 -0.42239,0.28789 -0.19557,0.15872 -0.12331,0.49781 0.0191,0.16113 0.0737,0.1606 -0.24914,0.72169 -0.20897,0.32142 -0.64007,0.62123 -2.52511,0.0609 0.64441,-1.00323 0.13444,-0.22774 0.009,-0.0674 -0.51591,-1.94998 -0.22921,-0.51826 -0.15604,-0.2588 -0.16543,-0.0229 -0.14383,0.0619 -0.23629,0.19044 -0.0496,0.12539 -0.0307,0.0321 -0.0699,0.0459 -0.0557,0.001 -0.26759,-0.0652 -0.46094,-0.25854 -0.0838,-0.28515 -0.0113,-0.11563"
     id="37153"
     inkscape:label="Richmond, NC"
     inkscape:connector-curvature="0" />
  <path
     style="font-size:12px;fill:#006bb1;fill-opacity:1;fill-rule:nonzero;stroke:#ffffff;stroke-width:0.1;stroke-linecap:butt;stroke-linejoin:bevel;stroke-miterlimit:4;stroke-opacity:1;stroke-dasharray:none;marker-start:none"
     d="m 466.52055,201.72933 -1.09579,2.74281 -2.46096,-2.1784 0.64007,-0.62123 0.20897,-0.32142 0.24914,-0.72169 -0.0737,-0.1606 -0.0191,-0.16113 0.12331,-0.49781 0.19557,-0.15872 0.42239,-0.28789 0.54832,-0.24222 1.26181,2.6083"
     id="37165"
     inkscape:label="Scotland, NC"
     inkscape:connector-curvature="0" />
  <path
     style="font-size:12px;fill:#006bb1;fill-opacity:1;fill-rule:nonzero;stroke:#ffffff;stroke-width:0.1;stroke-linecap:butt;stroke-linejoin:bevel;stroke-miterlimit:4;stroke-opacity:1;stroke-dasharray:none;marker-start:none"
     d="m 467.84005,179.5441 -0.006,3.89382 -1.06694,0.0211 -2.83725,0.0258 0.0807,-3.78357 0.41654,-0.0191 1.30822,-0.0504 1.27778,-0.0566 0.82704,-0.0311"
     id="37033"
     inkscape:label="Caswell, NC"
     inkscape:connector-curvature="0" />
  <path
     style="font-size:12px;fill:#006bb1;fill-opacity:1;fill-rule:nonzero;stroke:#ffffff;stroke-width:0.1;stroke-linecap:butt;stroke-linejoin:bevel;stroke-miterlimit:4;stroke-opacity:1;stroke-dasharray:none;marker-start:none"
     d="m 463.92975,183.48489 2.83725,-0.0258 0.26585,4.76021 -3.02424,0.54613 -0.0211,-0.73077 -0.0606,-4.44111 0.003,-0.10863"
     id="37001"
     inkscape:label="Alamance, NC"
     inkscape:connector-curvature="0" />
  <path
     style="font-size:12px;fill:#006bb1;fill-opacity:1;fill-rule:nonzero;stroke:#ffffff;stroke-width:0.1;stroke-linecap:butt;stroke-linejoin:bevel;stroke-miterlimit:4;stroke-opacity:1;stroke-dasharray:none;marker-start:none"
     d="m 466.16463,192.91663 1.84729,2.667 0.9693,1.45237 -0.006,0.23747 -1.5839,-0.42382 -0.39057,0.25493 -0.57111,0.51669 -0.78705,0.98351 -0.38429,0.51625 -1.68459,-1.50679 -0.24747,-0.15232 -0.2146,-0.22954 -0.49084,-0.7654 -0.11775,-0.26562 -0.009,-0.16471 -0.69808,-2.8817 2.22316,-0.12584 2.14459,-0.11248"
     id="37125"
     inkscape:label="Moore, NC"
     inkscape:connector-curvature="0" />
  <path
     style="font-size:12px;fill:#006bb1;fill-opacity:1;fill-rule:nonzero;stroke:#ffffff;stroke-width:0.1;stroke-linecap:butt;stroke-linejoin:bevel;stroke-miterlimit:4;stroke-opacity:1;stroke-dasharray:none;marker-start:none"
     d="m 465.25874,199.12103 0.38429,-0.51625 0.78705,-0.98351 0.57111,-0.51669 0.39057,-0.25493 1.5839,0.42382 0.7786,2.83225 -1.4102,1.4385 -0.59739,0.18092 -1.22612,0.004 -1.26181,-2.6083"
     id="37093"
     inkscape:label="Hoke, NC"
     inkscape:connector-curvature="0" />
  <path
     style="font-size:12px;fill:#006bb1;fill-opacity:1;fill-rule:nonzero;stroke:#ffffff;stroke-width:0.1;stroke-linecap:butt;stroke-linejoin:bevel;stroke-miterlimit:4;stroke-opacity:1;stroke-dasharray:none;marker-start:none"
     d="m 469.75426,200.10572 1.46498,1.4815 1.08705,1.84216 0.0136,0.19369 -0.41676,2.26325 -0.17534,0.25338 -0.55772,0.41254 -0.80563,1.24947 -0.64787,0.80186 -4.16373,-4.01379 -0.1281,-0.11764 1.09579,-2.74281 1.22612,-0.004 0.59739,-0.18092 1.4102,-1.4385"
     id="37155"
     inkscape:label="Robeson, NC"
     inkscape:connector-curvature="0" />
  <path
     style="font-size:12px;fill:#006bb1;fill-opacity:1;fill-rule:nonzero;stroke:#ffffff;stroke-width:0.1;stroke-linecap:butt;stroke-linejoin:bevel;stroke-miterlimit:4;stroke-opacity:1;stroke-dasharray:none;marker-start:none"
     d="m 478.27681,206.9115 1.02281,0.50275 -0.88679,1.87324 -1.34759,0.53253 -1.1695,0.23007 -0.12123,-0.007 -0.0844,0.0186 -0.30798,0.28553 -0.72005,1.68933 -0.28603,0.97401 -4.65951,-4.40736 0.64787,-0.80186 0.80563,-1.24947 0.55772,-0.41254 0.4129,0.23373 0.0891,0.0123 0.22439,-0.009 1.17898,-0.1379 1.2565,0.45529 1.39454,0.61066 1.15873,0.0743 0.83381,-0.46725"
     id="37047"
     inkscape:label="Columbus, NC"
     inkscape:connector-curvature="0" />
  <path
     style="font-size:12px;fill:#006bb1;fill-opacity:1;fill-rule:nonzero;stroke:#ffffff;stroke-width:0.1;stroke-linecap:butt;stroke-linejoin:bevel;stroke-miterlimit:4;stroke-opacity:1;stroke-dasharray:none;marker-start:none"
     d="m 479.29962,207.41425 1.41399,0.258 0.71111,1.12191 0.41628,1.53141 0.10404,0.82501 0.0115,0.28222 0.0155,1.4003 -0.83969,0.57547 -0.82817,-0.18714 -0.4483,-0.0579 -0.43136,-0.005 -1.04789,0.0732 -1.09872,0.18533 -0.0374,0.008 -0.004,-5.5e-4 -1.30742,0.53405 -0.33409,0.20419 -1.21882,-1.1517 0.28603,-0.97401 0.72005,-1.68933 0.30798,-0.28553 0.0844,-0.0186 0.12123,0.007 1.1695,-0.23007 1.34759,-0.53253 0.88679,-1.87324"
     id="37019"
     inkscape:label="Brunswick, NC"
     inkscape:connector-curvature="0" />
  <path
     style="font-size:12px;fill:#006bb1;fill-opacity:1;fill-rule:nonzero;stroke:#ffffff;stroke-width:0.1;stroke-linecap:butt;stroke-linejoin:bevel;stroke-miterlimit:4;stroke-opacity:1;stroke-dasharray:none;marker-start:none"
     d="m 484.05373,208.01069 -0.23215,0.26269 -0.2321,0.36466 -0.63573,1.10841 -0.1183,0.29356 -0.30028,0.85797 -0.0318,0.10565 -0.53145,1.82947 -0.0155,-1.4003 -0.0115,-0.28222 -0.10404,-0.82501 -0.41628,-1.53141 -0.71111,-1.12191 1.07662,-0.47105 0.85734,-0.27219 0.41574,0.0524 -0.0986,0.11458 0.031,0.10423 0.14325,0.18334 0.65126,0.59071 0.2635,0.0364"
     id="37129"
     inkscape:label="New Hanover, NC"
     inkscape:connector-curvature="0" />
  <path
     style="font-size:12px;fill:#006bb1;fill-opacity:1;fill-rule:nonzero;stroke:#ffffff;stroke-width:0.1;stroke-linecap:butt;stroke-linejoin:bevel;stroke-miterlimit:4;stroke-opacity:1;stroke-dasharray:none;marker-start:none"
     d="m 475.47788,201.11577 2.71583,3.79653 -0.1714,0.21759 0.0192,0.0653 0.21064,0.35316 0.1668,0.13712 0.30755,0.0829 0.35061,0.25338 -0.80035,0.88981 -0.83381,0.46725 -1.15873,-0.0743 -1.39454,-0.61066 -1.2565,-0.45529 -1.17898,0.1379 -0.22439,0.009 -0.0891,-0.0123 -0.4129,-0.23373 0.17534,-0.25338 0.41676,-2.26325 -0.0136,-0.19369 -1.08705,-1.84216 0.60768,-0.18959 0.44525,-0.0515 2.80332,-0.1456 0.29515,-0.0319 0.10724,-0.0528"
     id="37017"
     inkscape:label="Bladen, NC"
     inkscape:connector-curvature="0" />
  <path
     style="font-size:12px;fill:#006bb1;fill-opacity:1;fill-rule:nonzero;stroke:#ffffff;stroke-width:0.1;stroke-linecap:butt;stroke-linejoin:bevel;stroke-miterlimit:4;stroke-opacity:1;stroke-dasharray:none;marker-start:none"
     d="m 473.96138,196.12821 -0.46954,2.00965 -0.013,0.0941 0.17464,0.58441 0.24571,0.66187 0.0593,0.1263 1.51943,1.51123 -0.10724,0.0528 -0.29515,0.0319 -2.80332,0.1456 -0.44525,0.0515 -0.60768,0.18959 -1.46498,-1.4815 -0.7786,-2.83225 0.006,-0.23747 0.33656,-0.0978 1.95615,-0.58976 0.97374,-0.36211 0.31779,-0.0278 1.39592,0.16969"
     id="37051"
     inkscape:label="Cumberland, NC"
     inkscape:connector-curvature="0" />
  <path
     style="font-size:12px;fill:#006bb1;fill-opacity:1;fill-rule:nonzero;stroke:#ffffff;stroke-width:0.1;stroke-linecap:butt;stroke-linejoin:bevel;stroke-miterlimit:4;stroke-opacity:1;stroke-dasharray:none;marker-start:none"
     d="m 470.60067,188.1884 -0.0242,0.32877 -0.76699,3.05174 0.85308,0.31373 -0.54652,0.82092 -0.88982,-0.92452 -0.18018,-0.15715 -0.0994,-0.0622 -0.26669,-0.1156 -0.20851,-0.0106 -0.19147,0.0341 -0.52361,0.604 -0.51634,0.33951 -0.8035,0.41592 -0.27183,0.0896 -2.14459,0.11248 -0.0114,-4.26371 3.02424,-0.54613 2.42348,0.0755 1.14434,-0.10634"
     id="37037"
     inkscape:label="Chatham, NC"
     inkscape:connector-curvature="0" />
  <path
     style="font-size:12px;fill:#006bb1;fill-opacity:1;fill-rule:nonzero;stroke:#ffffff;stroke-width:0.1;stroke-linecap:butt;stroke-linejoin:bevel;stroke-miterlimit:4;stroke-opacity:1;stroke-dasharray:none;marker-start:none"
     d="m 470.66252,191.88264 2.18583,0.74323 1.86662,2.56367 -0.75359,0.93867 -1.39592,-0.16969 -0.31779,0.0278 -0.97374,0.36211 -1.95615,0.58976 -0.33656,0.0978 -0.9693,-1.45237 2.10408,-2.88007 0.54652,-0.82092"
     id="37085"
     inkscape:label="Harnett, NC"
     inkscape:connector-curvature="0" />
  <path
     style="font-size:12px;fill:#006bb1;fill-opacity:1;fill-rule:nonzero;stroke:#ffffff;stroke-width:0.1;stroke-linecap:butt;stroke-linejoin:bevel;stroke-miterlimit:4;stroke-opacity:1;stroke-dasharray:none;marker-start:none"
     d="m 466.16463,192.91663 0.27183,-0.0896 0.8035,-0.41592 0.51634,-0.33951 0.52361,-0.604 0.19147,-0.0341 0.20851,0.0106 0.26669,0.1156 0.0994,0.0622 0.18018,0.15715 0.88982,0.92452 -2.10408,2.88007 -1.84729,-2.667"
     id="37105"
     inkscape:label="Lee, NC"
     inkscape:connector-curvature="0" />
  <path
     style="font-size:12px;fill:#006bb1;fill-opacity:1;fill-rule:nonzero;stroke:#ffffff;stroke-width:0.1;stroke-linecap:butt;stroke-linejoin:bevel;stroke-miterlimit:4;stroke-opacity:1;stroke-dasharray:none;marker-start:none"
     d="m 467.83394,183.43792 2.09709,-0.0463 -0.4747,4.90317 -2.42348,-0.0755 -0.26585,-4.76021 1.06694,-0.0211"
     id="37135"
     inkscape:label="Orange, NC"
     inkscape:connector-curvature="0" />
  <path
     style="font-size:12px;fill:#006bb1;fill-opacity:1;fill-rule:nonzero;stroke:#ffffff;stroke-width:0.1;stroke-linecap:butt;stroke-linejoin:bevel;stroke-miterlimit:4;stroke-opacity:1;stroke-dasharray:none;marker-start:none"
     d="m 467.84005,179.5441 3.5151,-0.14618 0.11572,3.96921 -1.53984,0.0244 -2.09709,0.0463 0.006,-3.89382"
     id="37145"
     inkscape:label="Person, NC"
     inkscape:connector-curvature="0" />
  <path
     style="font-size:12px;fill:#006bb1;fill-opacity:1;fill-rule:nonzero;stroke:#ffffff;stroke-width:0.1;stroke-linecap:butt;stroke-linejoin:bevel;stroke-miterlimit:4;stroke-opacity:1;stroke-dasharray:none;marker-start:none"
     d="m 471.47087,183.36713 0.64083,2.11262 0.54895,0.73204 -0.12603,0.58324 -0.15995,0.31002 -0.28471,0.36547 -0.70465,0.69407 -0.78464,0.0238 -1.14434,0.10634 0.4747,-4.90317 1.53984,-0.0244"
     id="37063"
     inkscape:label="Durham, NC"
     inkscape:connector-curvature="0" />
  <path
     style="font-size:12px;fill:#006bb1;fill-opacity:1;fill-rule:nonzero;stroke:#ffffff;stroke-width:0.1;stroke-linecap:butt;stroke-linejoin:bevel;stroke-miterlimit:4;stroke-opacity:1;stroke-dasharray:none;marker-start:none"
     d="m 479.57899,202.66074 4.54827,-0.22245 1.91969,3.53104 -1.99322,2.04136 -0.2635,-0.0364 -0.65126,-0.59071 -0.14325,-0.18334 -0.031,-0.10423 0.0986,-0.11458 -0.41574,-0.0524 -0.85734,0.27219 -1.07662,0.47105 -1.41399,-0.258 -1.02281,-0.50275 0.80035,-0.88981 -0.35061,-0.25338 -0.30755,-0.0829 -0.1668,-0.13712 -0.21064,-0.35316 -0.0192,-0.0653 0.1714,-0.21759 1.38528,-2.25156"
     id="37141"
     inkscape:label="Pender, NC"
     inkscape:connector-curvature="0" />
  <path
     style="font-size:12px;fill:#006bb1;fill-opacity:1;fill-rule:nonzero;stroke:#ffffff;stroke-width:0.1;stroke-linecap:butt;stroke-linejoin:bevel;stroke-miterlimit:4;stroke-opacity:1;stroke-dasharray:none;marker-start:none"
     d="m 474.71497,195.18954 2.48909,0.25818 1.53772,1.18163 0.11341,1.42191 0.24747,2.2854 -0.45465,2.17221 0.71115,0.32541 0.0683,-0.0269 0.1515,-0.14665 -1.38528,2.25156 -2.71583,-3.79653 -1.51943,-1.51123 -0.0593,-0.1263 -0.24571,-0.66187 -0.17464,-0.58441 0.013,-0.0941 0.46954,-2.00965 0.75359,-0.93867"
     id="37163"
     inkscape:label="Sampson, NC"
     inkscape:connector-curvature="0" />
  <path
     style="font-size:12px;fill:#006bb1;fill-opacity:1;fill-rule:nonzero;stroke:#ffffff;stroke-width:0.1;stroke-linecap:butt;stroke-linejoin:bevel;stroke-miterlimit:4;stroke-opacity:1;stroke-dasharray:none;marker-start:none"
     d="m 479.51387,191.44423 2.51549,0.0307 0.3255,2.61922 -0.1598,2.50773 -3.45328,0.0275 -1.53772,-1.18163 0.48209,-0.52999 0.99642,-1.24936 0.8313,-2.22414"
     id="37191"
     inkscape:label="Wayne, NC"
     inkscape:connector-curvature="0" />
  <path
     style="font-size:12px;fill:#006bb1;fill-opacity:1;fill-rule:nonzero;stroke:#ffffff;stroke-width:0.1;stroke-linecap:butt;stroke-linejoin:bevel;stroke-miterlimit:4;stroke-opacity:1;stroke-dasharray:none;marker-start:none"
     d="m 478.08908,189.62809 0.37749,0.5337 0.40123,1.08514 0.64607,0.1973 -0.8313,2.22414 -0.99642,1.24936 -0.48209,0.52999 -2.48909,-0.25818 -1.86662,-2.56367 1.67766,-1.77403 1.65279,-1.3969 1.20309,-0.92601 0.70719,1.09916"
     id="37101"
     inkscape:label="Johnston, NC"
     inkscape:connector-curvature="0" />
  <path
     style="font-size:12px;fill:#006bb1;fill-opacity:1;fill-rule:nonzero;stroke:#ffffff;stroke-width:0.1;stroke-linecap:butt;stroke-linejoin:bevel;stroke-miterlimit:4;stroke-opacity:1;stroke-dasharray:none;marker-start:none"
     d="m 472.1117,185.47975 2.12186,0.54864 0.56528,0.21945 0.70439,0.33054 1.28092,0.97251 0.3164,0.34759 0.27239,0.49797 0.009,0.13248 -1.20309,0.92601 -1.65279,1.3969 -1.67766,1.77403 -2.18583,-0.74323 -0.85308,-0.31373 0.76699,-3.05174 0.0242,-0.32877 0.78464,-0.0238 0.70465,-0.69407 0.28471,-0.36547 0.15995,-0.31002 0.12603,-0.58324 -0.54895,-0.73204"
     id="37183"
     inkscape:label="Wake, NC"
     inkscape:connector-curvature="0" />
  <path
     style="font-size:12px;fill:#006bb1;fill-opacity:1;fill-rule:nonzero;stroke:#ffffff;stroke-width:0.1;stroke-linecap:butt;stroke-linejoin:bevel;stroke-miterlimit:4;stroke-opacity:1;stroke-dasharray:none;marker-start:none"
     d="m 471.99196,179.36277 2.8492,-0.13422 -0.39973,0.38692 -0.0614,0.24692 -0.0294,0.8409 0.0938,1.98755 0.0848,1.22716 0.12828,0.0944 -0.42397,2.01594 -2.12186,-0.54864 -0.64083,-2.11262 -0.11572,-3.96921 0.63681,-0.0351"
     id="37077"
     inkscape:label="Granville, NC"
     inkscape:connector-curvature="0" />
  <path
     style="font-size:12px;fill:#006bb1;fill-opacity:1;fill-rule:nonzero;stroke:#ffffff;stroke-width:0.1;stroke-linecap:butt;stroke-linejoin:bevel;stroke-miterlimit:4;stroke-opacity:1;stroke-dasharray:none;marker-start:none"
     d="m 474.84116,179.22855 1.36731,-0.0836 0.34947,3.59267 -1.90041,1.27484 -0.12828,-0.0944 -0.0848,-1.22716 -0.0938,-1.98755 0.0294,-0.8409 0.0614,-0.24692 0.39973,-0.38692"
     id="37181"
     inkscape:label="Vance, NC"
     inkscape:connector-curvature="0" />
  <path
     style="font-size:12px;fill:#006bb1;fill-opacity:1;fill-rule:nonzero;stroke:#ffffff;stroke-width:0.1;stroke-linecap:butt;stroke-linejoin:bevel;stroke-miterlimit:4;stroke-opacity:1;stroke-dasharray:none;marker-start:none"
     d="m 479.0586,178.99672 1.50518,-0.0878 0.0448,0.49378 -0.90733,4.00146 -3.14334,-0.66658 -0.34947,-3.59267 2.85013,-0.14822"
     id="37185"
     inkscape:label="Warren, NC"
     inkscape:connector-curvature="0" />
  <path
     style="font-size:12px;fill:#006bb1;fill-opacity:1;fill-rule:nonzero;stroke:#ffffff;stroke-width:0.1;stroke-linecap:butt;stroke-linejoin:bevel;stroke-miterlimit:4;stroke-opacity:1;stroke-dasharray:none;marker-start:none"
     d="m 479.70128,183.40419 -2.31939,5.12474 -0.009,-0.13248 -0.27239,-0.49797 -0.3164,-0.34759 -1.28092,-0.97251 -0.70439,-0.33054 -0.56528,-0.21945 0.42397,-2.01594 1.90041,-1.27484 3.14334,0.66658"
     id="37069"
     inkscape:label="Franklin, NC"
     inkscape:connector-curvature="0" />
  <path
     style="font-size:12px;fill:#006bb1;fill-opacity:1;fill-rule:nonzero;stroke:#ffffff;stroke-width:0.1;stroke-linecap:butt;stroke-linejoin:bevel;stroke-miterlimit:4;stroke-opacity:1;stroke-dasharray:none;marker-start:none"
     d="m 482.9204,183.88036 -0.11343,0.61628 -0.70934,2.05019 -0.32768,1.11464 -3.68087,1.96662 -0.70719,-1.09916 2.31939,-5.12474 3.21912,0.47617"
     id="37127"
     inkscape:label="Nash, NC"
     inkscape:connector-curvature="0" />
  <path
     style="font-size:12px;fill:#006bb1;fill-opacity:1;fill-rule:nonzero;stroke:#ffffff;stroke-width:0.1;stroke-linecap:butt;stroke-linejoin:bevel;stroke-miterlimit:4;stroke-opacity:1;stroke-dasharray:none;marker-start:none"
     d="m 488.11496,178.4554 0.81033,0.92262 -0.60614,1.39112 -0.42219,1.60128 -0.79684,1.06898 -0.0674,0.0492 -0.10042,-0.0331 -0.81868,-0.48968 -2.03197,-1.82738 -0.0706,-0.8335 -0.93906,-0.68501 -2.40779,-0.29136 -0.0557,0.0741 -0.0448,-0.49378 1.36045,-0.0704 4.83865,-0.27822 1.35208,-0.1049"
     id="37131"
     inkscape:label="Northampton, NC"
     inkscape:connector-curvature="0" />
  <path
     style="font-size:12px;fill:#006bb1;fill-opacity:1;fill-rule:nonzero;stroke:#ffffff;stroke-width:0.1;stroke-linecap:butt;stroke-linejoin:bevel;stroke-miterlimit:4;stroke-opacity:1;stroke-dasharray:none;marker-start:none"
     d="m 480.60861,179.40273 0.0557,-0.0741 2.40779,0.29136 0.93906,0.68501 0.0706,0.8335 2.03197,1.82738 0.81868,0.48968 0.10042,0.0331 0.0674,-0.0492 -0.29529,1.23823 -0.72186,0.95013 -0.21907,0.0293 -0.99835,-0.38025 -0.12447,-0.40687 -0.50898,-0.37117 -1.3117,-0.61839 -3.21912,-0.47617 0.90733,-4.00146"
     id="37083"
     inkscape:label="Halifax, NC"
     inkscape:connector-curvature="0" />
  <path
     style="font-size:12px;fill:#006bb1;fill-opacity:1;fill-rule:nonzero;stroke:#ffffff;stroke-width:0.1;stroke-linecap:butt;stroke-linejoin:bevel;stroke-miterlimit:4;stroke-opacity:1;stroke-dasharray:none;marker-start:none"
     d="m 486.08297,185.62776 0.67652,2.37295 -0.42002,-0.15294 -0.82818,0.46298 -0.26448,0.33596 -0.34776,0.33959 -1.25928,1.04041 -0.64562,-0.65354 -0.33593,-1.00242 -0.88827,-0.70928 0.32768,-1.11464 0.70934,-2.05019 0.11343,-0.61628 1.3117,0.61839 0.50898,0.37117 0.12447,0.40687 0.99835,0.38025 0.21907,-0.0293"
     id="37065"
     inkscape:label="Edgecombe, NC"
     inkscape:connector-curvature="0" />
  <path
     style="font-size:12px;fill:#006bb1;fill-opacity:1;fill-rule:nonzero;stroke:#ffffff;stroke-width:0.1;stroke-linecap:butt;stroke-linejoin:bevel;stroke-miterlimit:4;stroke-opacity:1;stroke-dasharray:none;marker-start:none"
     d="m 481.76995,187.66147 0.88827,0.70928 0.33593,1.00242 0.64562,0.65354 -0.38818,0.34712 -1.22223,1.10105 -2.51549,-0.0307 -0.64607,-0.1973 -0.40123,-1.08514 -0.37749,-0.5337 3.68087,-1.96662"
     id="37195"
     inkscape:label="Wilson, NC"
     inkscape:connector-curvature="0" />
  <path
     style="font-size:12px;fill:#006bb1;fill-opacity:1;fill-rule:nonzero;stroke:#ffffff;stroke-width:0.1;stroke-linecap:butt;stroke-linejoin:bevel;stroke-miterlimit:4;stroke-opacity:1;stroke-dasharray:none;marker-start:none"
     d="m 483.25159,190.37383 2.50407,2.79411 -0.92434,0.61828 -0.70806,0.41195 -0.35562,0.10429 -0.0947,0.006 -0.15864,-0.23997 -1.15941,0.0255 -0.3255,-2.61922 1.22223,-1.10105"
     id="37079"
     inkscape:label="Greene, NC"
     inkscape:connector-curvature="0" />
  <path
     style="font-size:12px;fill:#006bb1;fill-opacity:1;fill-rule:nonzero;stroke:#ffffff;stroke-width:0.1;stroke-linecap:butt;stroke-linejoin:bevel;stroke-miterlimit:4;stroke-opacity:1;stroke-dasharray:none;marker-start:none"
     d="m 486.70836,194.23642 -0.78639,1.49744 -0.55113,-0.1539 0.21753,0.93155 -0.0166,0.0835 -0.86883,1.25386 -1.30236,0.89918 -1.20553,-2.14624 0.1598,-2.50773 1.15941,-0.0255 0.15864,0.23997 0.0947,-0.006 0.35562,-0.10429 0.70806,-0.41195 0.92434,-0.61828 0.9527,1.06848"
     id="37107"
     inkscape:label="Lenoir, NC"
     inkscape:connector-curvature="0" />
  <path
     style="font-size:12px;fill:#006bb1;fill-opacity:1;fill-rule:nonzero;stroke:#ffffff;stroke-width:0.1;stroke-linecap:butt;stroke-linejoin:bevel;stroke-miterlimit:4;stroke-opacity:1;stroke-dasharray:none;marker-start:none"
     d="m 485.92197,195.73386 0.10605,0.0288 2.95322,1.67707 0.29358,0.2132 0.42103,-0.18309 0.11275,0.0388 0.0528,0.085 0.10714,0.60537 0.0562,2.45682 0.24726,0.35115 -0.78065,0.27977 -0.62987,-1.16923 -0.0412,-0.0673 -0.51078,-0.5188 -0.31647,-0.0841 -2.92718,-0.40453 -1.09699,0.12904 -0.56834,-0.42379 1.30236,-0.89918 0.86883,-1.25386 0.0166,-0.0835 -0.21753,-0.93155 0.55113,0.1539"
     id="37103"
     inkscape:label="Jones, NC"
     inkscape:connector-curvature="0" />
  <path
     style="font-size:12px;fill:#006bb1;fill-opacity:1;fill-rule:nonzero;stroke:#ffffff;stroke-width:0.1;stroke-linecap:butt;stroke-linejoin:bevel;stroke-miterlimit:4;stroke-opacity:1;stroke-dasharray:none;marker-start:none"
     d="m 478.74178,196.62935 3.45328,-0.0275 1.20553,2.14624 0.56834,0.42379 0.3251,0.61328 -0.2243,2.41201 -0.002,0.0815 0.0597,0.15968 -4.54827,0.22245 -0.1515,0.14665 -0.0683,0.0269 -0.71115,-0.32541 0.45465,-2.17221 -0.24747,-2.2854 -0.11341,-1.42191"
     id="37061"
     inkscape:label="Duplin, NC"
     inkscape:connector-curvature="0" />
  <path
     style="font-size:12px;fill:#006bb1;fill-opacity:1;fill-rule:nonzero;stroke:#ffffff;stroke-width:0.1;stroke-linecap:butt;stroke-linejoin:bevel;stroke-miterlimit:4;stroke-opacity:1;stroke-dasharray:none;marker-start:none"
     d="m 483.96893,199.17186 1.09699,-0.12904 2.92718,0.40453 0.31647,0.0841 0.51078,0.5188 0.0412,0.0673 0.62987,1.16923 0.67655,1.85407 -4.121,2.82848 -1.91969,-3.53104 -0.0597,-0.15968 0.002,-0.0815 0.2243,-2.41201 -0.3251,-0.61328"
     id="37133"
     inkscape:label="Onslow, NC"
     inkscape:connector-curvature="0" />
  <path
     style="font-size:12px;fill:#006bb1;fill-opacity:1;fill-rule:nonzero;stroke:#ffffff;stroke-width:0.1;stroke-linecap:butt;stroke-linejoin:bevel;stroke-miterlimit:4;stroke-opacity:1;stroke-dasharray:none;marker-start:none"
     d="m 494.77093,197.89863 0.0318,0.0912 0.15629,0.22047 0.42504,0.0143 1.99885,0.0582 0.0922,1.56838 2.39183,-1.93075 -0.68442,1.16124 -2.52268,3.34515 -0.5664,0.24881 -0.3341,-0.16833 -1.04491,-0.3574 -0.53661,-0.0106 -0.45214,0.0284 -0.49352,0.0721 -0.92823,0.20082 -0.87351,0.22857 -0.0956,0.0272 -0.0391,0.0128 -0.28552,0.0938 -0.24478,0.0984 -0.41911,0.16922 -0.1783,0.0702 -0.67655,-1.85407 0.78065,-0.27977 1.40557,-0.19239 2.05159,-0.59374 0.66131,-0.33663 0.27664,-0.58464 0.0886,-0.28353 -0.0631,-0.0764 -0.58936,-0.50544 0.66762,-0.53565"
     id="37031"
     inkscape:label="Carteret, NC"
     inkscape:connector-curvature="0" />
  <path
     style="font-size:12px;fill:#006bb1;fill-opacity:1;fill-rule:nonzero;stroke:#ffffff;stroke-width:0.1;stroke-linecap:butt;stroke-linejoin:bevel;stroke-miterlimit:4;stroke-opacity:1;stroke-dasharray:none;marker-start:none"
     d="m 494.87962,193.73733 1.13149,0.14728 0.19642,0.0907 0.12144,0.23887 0.0648,0.23206 0.0124,0.20261 -0.23946,0.64428 -0.46262,1.19997 -0.21151,0.35438 -0.72168,1.0511 -0.66762,0.53565 -0.50942,0.39902 -0.19093,0.0594 -0.40462,-0.001 -0.88791,-0.35388 -0.53203,-0.40161 -0.20553,-0.28785 -0.27391,-1.48043 0.19698,-0.59262 0.17753,-0.2985 0.4749,-0.43408 0.55008,0.45357 2.21189,-0.39491 0.15483,-0.47024 0.016,-0.11589 -0.002,-0.77754"
     id="37137"
     inkscape:label="Pamlico, NC"
     inkscape:connector-curvature="0" />
  <path
     style="font-size:12px;fill:#006bb1;fill-opacity:1;fill-rule:nonzero;stroke:#ffffff;stroke-width:0.1;stroke-linecap:butt;stroke-linejoin:bevel;stroke-miterlimit:4;stroke-opacity:1;stroke-dasharray:none;marker-start:none"
     d="m 488.73609,193.09223 3.21228,1.95011 -0.4749,0.43408 -0.17753,0.2985 -0.19698,0.59262 0.27391,1.48043 0.20553,0.28785 0.53203,0.40161 0.88791,0.35388 0.40462,0.001 0.19093,-0.0594 0.50942,-0.39902 0.58936,0.50544 0.0631,0.0764 -0.0886,0.28353 -0.27664,0.58464 -0.66131,0.33663 -2.05159,0.59374 -1.40557,0.19239 -0.24726,-0.35115 -0.0562,-2.45682 -0.10714,-0.60537 -0.0528,-0.085 -0.11275,-0.0388 -0.42103,0.18309 -0.29358,-0.2132 -2.95322,-1.67707 -0.10605,-0.0288 0.78639,-1.49744 2.02773,-1.14419"
     id="37049"
     inkscape:label="Craven, NC"
     inkscape:connector-curvature="0" />
  <path
     style="font-size:12px;fill:#006bb1;fill-opacity:1;fill-rule:nonzero;stroke:#ffffff;stroke-width:0.1;stroke-linecap:butt;stroke-linejoin:bevel;stroke-miterlimit:4;stroke-opacity:1;stroke-dasharray:none;marker-start:none"
     d="m 486.75949,188.00071 1.90265,1.00997 0.0739,4.08155 -2.02773,1.14419 -0.9527,-1.06848 -2.50407,-2.79411 0.38818,-0.34712 1.25928,-1.04041 0.34776,-0.33959 0.26448,-0.33596 0.82818,-0.46298 0.42002,0.15294"
     id="37147"
     inkscape:label="Pitt, NC"
     inkscape:connector-curvature="0" />
  <path
     style="font-size:12px;fill:#006bb1;fill-opacity:1;fill-rule:nonzero;stroke:#ffffff;stroke-width:0.1;stroke-linecap:butt;stroke-linejoin:bevel;stroke-miterlimit:4;stroke-opacity:1;stroke-dasharray:none;marker-start:none"
     d="m 486.80483,184.67763 0.004,0.0722 0.0733,0.1565 1.35633,1.44226 0.11198,0.0882 1.55462,0.82559 0.11264,0.0469 2.02503,0.0295 0.79381,-0.30924 -0.74055,2.1226 -1.07063,0.54456 -0.35014,0.15957 -0.86652,-0.40645 -1.14668,-0.43911 -1.90265,-1.00997 -0.67652,-2.37295 0.72186,-0.95013"
     id="37117"
     inkscape:label="Martin, NC"
     inkscape:connector-curvature="0" />
  <path
     style="font-size:12px;fill:#006bb1;fill-opacity:1;fill-rule:nonzero;stroke:#ffffff;stroke-width:0.1;stroke-linecap:butt;stroke-linejoin:bevel;stroke-miterlimit:4;stroke-opacity:1;stroke-dasharray:none;marker-start:none"
     d="m 493.13138,181.39783 1.36782,-0.81038 -0.21709,1.48325 0.28654,1.64471 0.034,0.0461 0.10881,0.0746 0.22205,0.066 0.41068,0.0891 0.91675,0.0722 -2.60423,0.8818 -0.58331,-2.86483 0.058,-0.68249"
     id="37041"
     inkscape:label="Chowan, NC"
     inkscape:connector-curvature="0" />
  <path
     style="font-size:12px;fill:#006bb1;fill-opacity:1;fill-rule:nonzero;stroke:#ffffff;stroke-width:0.1;stroke-linecap:butt;stroke-linejoin:bevel;stroke-miterlimit:4;stroke-opacity:1;stroke-dasharray:none;marker-start:none"
     d="m 490.67104,178.33115 0.15261,0.31284 -0.0311,0.12289 -0.24303,0.48026 -0.17597,0.0534 0.0767,0.71624 0.0314,0.0508 0.14186,0.12762 0.27365,0.12362 0.8904,0.27751 0.27637,0.0382 1.06755,0.76333 -0.058,0.68249 -1.98876,0.13906 -1.12179,0.11855 -1.79745,0.0696 -0.26845,-0.0371 0.42219,-1.60128 0.60614,-1.39112 -0.81033,-0.92262 2.5377,-0.12275 0.0184,-0.001"
     id="37091"
     inkscape:label="Hertford, NC"
     inkscape:connector-curvature="0" />
  <path
     style="font-size:12px;fill:#006bb1;fill-opacity:1;fill-rule:nonzero;stroke:#ffffff;stroke-width:0.1;stroke-linecap:butt;stroke-linejoin:bevel;stroke-miterlimit:4;stroke-opacity:1;stroke-dasharray:none;marker-start:none"
     d="m 493.07341,182.08032 0.58331,2.86483 -0.17902,0.99586 -0.64104,1.0885 -0.79381,0.30924 -2.02503,-0.0295 -0.11264,-0.0469 -1.55462,-0.82559 -0.11198,-0.0882 -1.35633,-1.44226 -0.0733,-0.1565 -0.004,-0.0722 0.29529,-1.23823 0.79684,-1.06898 0.26845,0.0371 1.79745,-0.0696 1.12179,-0.11855 1.98876,-0.13906"
     id="37015"
     inkscape:label="Bertie, NC"
     inkscape:connector-curvature="0" />
  <path
     style="font-size:12px;fill:#006bb1;fill-opacity:1;fill-rule:nonzero;stroke:#ffffff;stroke-width:0.1;stroke-linecap:butt;stroke-linejoin:bevel;stroke-miterlimit:4;stroke-opacity:1;stroke-dasharray:none;marker-start:none"
     d="m 494.50787,177.99725 0.54738,0.48046 0.50751,1.68938 -1.06356,0.42036 -1.36782,0.81038 -1.06755,-0.76333 -0.27637,-0.0382 -0.8904,-0.27751 -0.27365,-0.12362 -0.14186,-0.12762 -0.0314,-0.0508 -0.0767,-0.71624 0.17597,-0.0534 0.24303,-0.48026 0.0311,-0.12289 -0.15261,-0.31284 3.83683,-0.3339"
     id="37073"
     inkscape:label="Gates, NC"
     inkscape:connector-curvature="0" />
  <path
     style="font-size:12px;fill:#006bb1;fill-opacity:1;fill-rule:nonzero;stroke:#ffffff;stroke-width:0.1;stroke-linecap:butt;stroke-linejoin:bevel;stroke-miterlimit:4;stroke-opacity:1;stroke-dasharray:none;marker-start:none"
     d="m 495.02389,177.95954 1.82701,-0.13011 1.70365,1.50034 1.1226,0.83252 0.0556,-0.0367 0.13592,0.0319 0.21551,0.12063 0.67584,0.67589 0.82989,1.58452 0.003,0.0327 -1.64941,-0.18352 -0.26101,-0.39041 -0.70132,-0.65215 -1.38545,-1.12929 -1.9111,-1.2191 -0.62888,-0.51898 -0.54738,-0.48046 0.51602,-0.0377"
     id="37029"
     inkscape:label="Camden, NC"
     inkscape:connector-curvature="0" />
  <path
     style="font-size:12px;fill:#006bb1;fill-opacity:1;fill-rule:nonzero;stroke:#ffffff;stroke-width:0.1;stroke-linecap:butt;stroke-linejoin:bevel;stroke-miterlimit:4;stroke-opacity:1;stroke-dasharray:none;marker-start:none"
     d="m 495.05525,178.47771 0.62888,0.51898 1.9111,1.2191 1.38545,1.12929 0.70132,0.65215 0.26101,0.39041 -1.40494,0.94759 -0.9178,-0.79513 -1.14349,-0.88588 -0.83424,-1.29742 -0.0798,-0.18971 -0.50751,-1.68938"
     id="37139"
     inkscape:label="Pasquotank, NC"
     inkscape:connector-curvature="0" />
  <path
     style="font-size:12px;fill:#006bb1;fill-opacity:1;fill-rule:nonzero;stroke:#ffffff;stroke-width:0.1;stroke-linecap:butt;stroke-linejoin:bevel;stroke-miterlimit:4;stroke-opacity:1;stroke-dasharray:none;marker-start:none"
     d="m 495.56276,180.16709 0.0798,0.18971 0.83424,1.29742 1.14349,0.88588 0.9178,0.79513 -2.27712,0.72812 -0.91675,-0.0722 -0.41068,-0.0891 -0.22205,-0.066 -0.10881,-0.0746 -0.034,-0.0461 -0.28654,-1.64471 0.21709,-1.48325 1.06356,-0.42036"
     id="37143"
     inkscape:label="Perquimans, NC"
     inkscape:connector-curvature="0" />
  <path
     style="font-size:12px;fill:#006bb1;fill-opacity:1;fill-rule:nonzero;stroke:#ffffff;stroke-width:0.1;stroke-linecap:butt;stroke-linejoin:bevel;stroke-miterlimit:4;stroke-opacity:1;stroke-dasharray:none;marker-start:none"
     d="m 494.24497,189.016 1.64336,1.61518 -0.94968,0.70664 -0.1252,0.0513 -0.0391,0.0491 -0.007,0.0535 0.0197,0.15717 0.2424,0.6493 0.28902,0.51642 0.14556,0.22505 -0.58399,0.69762 0.002,0.77754 -0.016,0.11589 -0.15483,0.47024 -2.21189,0.39491 -0.55008,-0.45357 -3.21228,-1.95011 -0.0739,-4.08155 1.14668,0.43911 0.86652,0.40645 0.35014,-0.15957 1.07063,-0.54456 2.14886,-0.13611"
     id="37013"
     inkscape:label="Beaufort, NC"
     inkscape:connector-curvature="0" />
  <path
     style="font-size:12px;fill:#006bb1;fill-opacity:1;fill-rule:nonzero;stroke:#ffffff;stroke-width:0.1;stroke-linecap:butt;stroke-linejoin:bevel;stroke-miterlimit:4;stroke-opacity:1;stroke-dasharray:none;marker-start:none"
     d="m 493.4777,185.94101 0.008,0.009 0.19441,0.11268 0.0657,0.0141 0.61158,-0.079 1.03027,-0.24527 0.33781,-0.16531 0.12653,-0.13394 0.63242,-0.22252 0.0929,0.0512 0.0898,0.10227 0.25976,0.36297 -0.021,1.37204 -0.29981,0.65008 0.16587,1.17376 -2.52675,0.0728 -2.14886,0.13611 0.74055,-2.1226 0.64104,-1.0885"
     id="37187"
     inkscape:label="Washington, NC"
     inkscape:connector-curvature="0" />
  <path
     style="font-size:12px;fill:#006bb1;fill-opacity:1;fill-rule:nonzero;stroke:#ffffff;stroke-width:0.1;stroke-linecap:butt;stroke-linejoin:bevel;stroke-miterlimit:4;stroke-opacity:1;stroke-dasharray:none;marker-start:none"
     d="m 500.61647,189.04147 -3.84475,-0.0983 -0.16587,-1.17376 0.29981,-0.65008 0.021,-1.37204 0.87091,-0.45809 0.58948,-0.24056 0.38127,-0.0927 1.18631,-0.0814 0.41073,0.25664 0.10935,0.12918 0.15654,0.7081 -0.0457,0.16228 -0.0539,0.36102 0.006,0.71557 0.084,0.7435 0.0518,0.86725 -0.0571,0.22328"
     id="37177"
     inkscape:label="Tyrrell, NC"
     inkscape:connector-curvature="0" />
  <path
     id="37055"
     style="font-size:12px;fill:#006bb1;fill-opacity:1;fill-rule:nonzero;stroke:#ffffff;stroke-width:0.1;stroke-linecap:butt;stroke-linejoin:bevel;stroke-miterlimit:4;stroke-opacity:1;stroke-dasharray:none;marker-start:none"
     d="m 500.61647,189.04147 0.0571,-0.22328 -0.0518,-0.86725 -0.084,-0.7435 -0.006,-0.71557 0.0539,-0.36102 0.0457,-0.16228 0.54032,-0.75413 0.0879,-0.0737 0.39019,-0.18634 0.20476,-0.0353 0.19723,-0.0101 0.1104,0.0193 0.43347,0.1871 0.31188,0.38028 0.58226,1.11924 0.0915,0.20748 0.26848,1.59275 0.003,0.06 -0.10551,0.89498 -0.42531,0.63778 -0.22052,0.0836 -0.41601,0.0737 -0.34057,-0.12883 -1.72807,-0.99494 m 3.39605,-3.63834 0.17162,0.10952 0.16242,0.16882 0.20379,0.27852 0.13914,0.33723 0.069,0.52337 -0.0577,0.0889 -0.0417,0.002 -0.46668,-0.15131 -0.079,-0.0785 -0.59874,-1.19724 -0.0415,-0.10164 -0.001,-0.0274 0.0856,-0.0568 0.13332,-0.008 0.15255,0.0211 0.16914,0.091 m -0.0942,9.5056 0.20146,-0.0771 0.16115,-0.0777 0.88553,-0.44699 0.95448,-0.52225 0.0521,-0.20176 0.1325,-1.30212 0.0582,-0.87426 0.0692,-1.29674 -0.0495,-0.59842 -0.053,-0.30311 -0.092,-0.32061 -0.13255,-0.22425 -0.10462,-0.178 -0.36335,-1.18389 0.0438,-0.0394 0.0552,0.0167 0.0181,0.008 0.0171,0.0296 0.21999,0.35849 0.0792,0.17953 0.22675,0.63098 0.12368,0.44916 0.17286,0.59729 0.004,0.56086 -0.004,0.16704 -0.0149,0.79444 -0.0698,1.15532 -0.0864,0.93902 -0.16269,1.1334 -0.0697,0.10949 -0.11918,-0.0215 -0.16351,-0.0367 -0.20916,0.0307 -0.30954,0.0703 -0.25715,0.11488 -1.15394,0.54112 -0.0608,-0.18102 m -1.21289,-13.34973 0.43466,0.97468 0.002,0.004 0.24473,0.50828 0.2559,0.44926 0.45325,0.70872 0.4682,0.85616 0.60696,1.10853 0.38562,0.82556 -0.0679,0.14102 -0.85403,-1.26381 -1.43159,-2.31477 -0.71196,-1.9266 0.21379,-0.0714"
     inkscape:label="Dare, NC"
     inkscape:connector-curvature="0" />
  <path
     style="font-size:12px;fill:#006bb1;fill-opacity:1;fill-rule:nonzero;stroke:#ffffff;stroke-width:0.1;stroke-linecap:butt;stroke-linejoin:bevel;stroke-miterlimit:4;stroke-opacity:1;stroke-dasharray:none;marker-start:none"
     d="m 498.80728,177.69094 2.62209,-0.19286 1.27609,4.06092 -0.21379,0.0714 -0.77025,-2.396 -0.56464,-0.82305 -0.0759,-0.0428 -1.01062,-0.18913 -0.15862,0.0447 -0.039,0.041 -0.0556,0.0882 -0.015,0.15238 0.14394,0.30255 0.0897,0.1396 0.0918,0.0662 0.45103,0.28644 0.54405,0.80405 1.41741,3.01644 0.11888,0.38893 -0.0101,0.13893 -0.0624,-0.009 -0.39606,-0.2314 -0.12864,-0.11368 -0.2318,-0.30964 -0.2375,-0.41442 -0.003,-0.0327 -0.82989,-1.58452 -0.67584,-0.67589 -0.21551,-0.12063 -0.13592,-0.0319 -0.0556,0.0367 -1.1226,-0.83252 -1.70365,-1.50034 1.95638,-0.13849"
     id="37053"
     inkscape:label="Currituck, NC"
     inkscape:connector-curvature="0" />
  <path
     id="37095"
     style="font-size:12px;fill:#006bb1;fill-opacity:1;fill-rule:nonzero;stroke:#ffffff;stroke-width:0.1;stroke-linecap:butt;stroke-linejoin:bevel;stroke-miterlimit:4;stroke-opacity:1;stroke-dasharray:none;marker-start:none"
     d="m 500.61647,189.04147 1.72807,0.99494 -0.26139,0.14558 -0.53287,0.59062 -0.0395,0.0592 -0.37754,0.69385 0.0194,0.15208 -0.0234,0.13304 -0.11328,0.40329 -0.0256,0.0833 -0.0624,0.0863 -0.46276,0.55083 -0.72967,0.60481 -0.0679,0.031 -2.62402,-0.10723 -0.0948,-0.008 -0.82565,-0.2201 -0.6595,-0.19512 -0.14556,-0.22505 -0.28902,-0.51642 -0.2424,-0.6493 -0.0197,-0.15717 0.007,-0.0535 0.0391,-0.0491 0.1252,-0.0513 0.94968,-0.70664 -1.64336,-1.61518 2.52675,-0.0728 3.84475,0.0983 m 3.30188,5.86726 0.0608,0.18102 -0.20597,0.0806 -0.20464,0.12214 -0.50984,0.30709 -0.72492,0.46817 -0.31992,0.2112 -0.37437,0.3349 -0.18236,0.20194 -0.11603,0.0799 -0.0252,-0.0439 0.0169,-0.0491 0.22232,-0.43264 0.21953,-0.23718 0.72629,-0.47808 1.09036,-0.65086 0.3271,-0.0951"
     inkscape:label="Hyde, NC"
     inkscape:connector-curvature="0" />
</svg>
