<?xml version="1.0" encoding="UTF-8" standalone="no"?>
<!-- Created with Inkscape (http://www.inkscape.org/) -->

<svg
   xmlns:dc="http://purl.org/dc/elements/1.1/"
   xmlns:cc="http://creativecommons.org/ns#"
   xmlns:rdf="http://www.w3.org/1999/02/22-rdf-syntax-ns#"
   xmlns:svg="http://www.w3.org/2000/svg"
   xmlns="http://www.w3.org/2000/svg"
   xmlns:sodipodi="http://sodipodi.sourceforge.net/DTD/sodipodi-0.dtd"
   xmlns:inkscape="http://www.inkscape.org/namespaces/inkscape"
   version="1.0"
   width="555.22198"
   height="351.66797"
   viewBox="0 0 555.22198 351.66797"
   preserveAspectRatio="xMinYMin meet"
   id="svg9559"
   sodipodi:version="0.32"
   inkscape:version="0.48.3.1 r9886"
   sodipodi:docname="nc_counties.svg"
   inkscape:output_extension="org.inkscape.output.svg.inkscape">
  <metadata
     id="metadata3671">
    <rdf:RDF>
      <cc:Work
         rdf:about="">
        <dc:format>image/svg+xml</dc:format>
        <dc:type
           rdf:resource="http://purl.org/dc/dcmitype/StillImage" />
      </cc:Work>
    </rdf:RDF>
  </metadata>
  <sodipodi:namedview
     inkscape:window-height="1048"
     inkscape:window-width="1769"
     inkscape:pageshadow="2"
     inkscape:pageopacity="0.0"
     guidetolerance="10.0"
     gridtolerance="10.0"
     objecttolerance="10.0"
     borderopacity="1.0"
     bordercolor="#666666"
     pagecolor="#ffffff"
     id="base"
     inkscape:zoom="0.83364411"
     inkscape:cx="59.624473"
     inkscape:cy="27.965474"
     inkscape:window-x="0"
     inkscape:window-y="35"
     inkscape:current-layer="svg9559"
     showguides="true"
     inkscape:guide-bbox="true"
     showgrid="false"
     inkscape:window-maximized="0" />
  <defs
     id="defs9561" />
  <path
     style="font-size:12px;fill:#006bb1;fill-opacity:1;fill-rule:nonzero;stroke:#ffffff;stroke-width:0.60000002;stroke-linecap:butt;stroke-linejoin:bevel;stroke-miterlimit:4;stroke-opacity:1;stroke-dasharray:none;marker-start:none"
     d="m 42.517865,195.60097 15.93258,12.735 -4.143,0.0876 -24.39204,0.1782 -4.34466,-0.03 16.94712,-12.97014"
     id="37043"
     inkscape:label="Clay"
     inkscape:connector-curvature="0" />
  <path
     style="font-size:12px;fill:#006bb1;fill-opacity:1;fill-rule:nonzero;stroke:#ffffff;stroke-width:0.60000002;stroke-linecap:butt;stroke-linejoin:bevel;stroke-miterlimit:4;stroke-opacity:1;stroke-dasharray:none;marker-start:none"
     d="m 67.639985,182.11916 14.42748,25.77371 -23.61702,0.4428 -15.93258,-12.735 2.30148,-7.18656 1.42218,-2.40192 0.4752,-0.237 13.81992,-2.26337 7.10358,-1.39273"
     id="37113"
     inkscape:label="Macon"
     inkscape:connector-curvature="0" />
  <path
     style="font-size:12px;fill:#006bb1;fill-opacity:1;fill-rule:nonzero;stroke:#ffffff;stroke-width:0.60000002;stroke-linecap:butt;stroke-linejoin:bevel;stroke-miterlimit:4;stroke-opacity:1;stroke-dasharray:none;marker-start:none"
     d="m 104.91001,175.01035 7.0416,8.25972 1.44066,2.19792 0.3924,2.2893 0.018,2.8671 0.86142,4.68 0.3474,0.81726 0.74406,0.5328 -12.02016,5.98284 -8.344445,0.9486 -6.97404,2.25246 5.49516,-20.60976 11.000405,-10.2183"
     id="37175"
     inkscape:label="Transylvania"
     inkscape:connector-curvature="0" />
  <path
     style="font-size:12px;fill:#006bb1;fill-opacity:1;fill-rule:nonzero;stroke:#ffffff;stroke-width:0.60000002;stroke-linecap:butt;stroke-linejoin:bevel;stroke-miterlimit:4;stroke-opacity:1;stroke-dasharray:none;marker-start:none"
     d="m 77.308385,167.86453 16.60122,17.36412 -5.49516,20.60976 -6.34698,2.05446 -14.42748,-25.77372 9.6684,-14.25462"
     id="37099"
     inkscape:label="Jackson"
     inkscape:connector-curvature="0" />
  <path
     style="font-size:12px;fill:#006bb1;fill-opacity:1;fill-rule:nonzero;stroke:#ffffff;stroke-width:0.60000002;stroke-linecap:butt;stroke-linejoin:bevel;stroke-miterlimit:4;stroke-opacity:1;stroke-dasharray:none;marker-start:none"
     d="m 91.213145,146.09714 4.97214,9.03372 8.724725,19.8795 -11.000405,10.2183 -16.60122,-17.36412 -4.2471,-14.1486 -0.066,-1.4931 18.2181,-6.1257"
     id="37087"
     inkscape:label="Haywood"
     inkscape:connector-curvature="0" />
  <path
     style="font-size:12px;fill:#006bb1;fill-opacity:1;fill-rule:nonzero;stroke:#ffffff;stroke-width:0.60000002;stroke-linecap:butt;stroke-linejoin:bevel;stroke-miterlimit:4;stroke-opacity:1;stroke-dasharray:none;marker-start:none"
     d="m 73.061285,153.71593 4.2471,14.1486 -9.6684,14.25462 -7.10358,1.39272 -13.81992,2.26338 -0.4752,0.237 -0.94836,-1.42122 0.0786,-0.74622 0.61686,-1.30788 0.3828,-0.3588 1.19154,-0.5136 1.52046,-0.3954 0.92832,-0.3624 1.69452,-2.79432 0.5538,-1.86168 0.0612,-0.83946 -0.0714,-1.45746 -3.47376,-0.7224 -19.50204,-1.50186 18.20226,-8.29026 0.2934,0.0708 1.12002,0.1788 8.87964,0.3066 0.82218,-0.3834 11.796,-6.94656 2.673,-2.94984"
     id="37173"
     inkscape:label="Swain"
     inkscape:connector-curvature="0" />
  <path
     style="font-size:12px;fill:#006bb1;fill-opacity:1;fill-rule:nonzero;stroke:#ffffff;stroke-width:0.60000002;stroke-linecap:butt;stroke-linejoin:bevel;stroke-miterlimit:4;stroke-opacity:1;stroke-dasharray:none;marker-start:none"
     d="m 29.275085,171.72937 19.50204,1.50186 3.47376,0.72241 0.0714,1.45745 -0.0612,0.83946 -0.5538,1.86168 -1.69452,2.79432 -0.92832,0.3624 -1.52046,0.3954 -1.19154,0.5136 -0.3828,0.3588 -0.61686,1.30788 -0.0786,0.74622 0.94836,1.42122 -1.42218,2.40192 -11.61492,0.90246 -4.50528,1.39435 -0.6003,-0.0828 -2.1177,-1.24361 -1.60566,-4.51032 4.41312,-13.39393 0.4866,0.249"
     id="37075"
     inkscape:label="Graham"
     inkscape:connector-curvature="0" />
  <path
     style="font-size:12px;fill:#006bb1;fill-opacity:1;fill-rule:nonzero;stroke:#ffffff;stroke-width:0.60000002;stroke-linecap:butt;stroke-linejoin:bevel;stroke-miterlimit:4;stroke-opacity:1;stroke-dasharray:none;marker-start:none"
     d="m 44.819345,188.41441 -2.30148,7.18656 -16.94712,12.97014 -7.81212,-0.0984 -12.12162,-0.252 2.10828,-16.96512 5.6664,-3.74754 6.62544,0.75204 2.61462,-1.60716 1.72374,-1.77882 1.60566,4.51032 2.1177,1.24362 0.6003,0.0828 4.50528,-1.39434 11.61492,-0.90247"
     id="37039"
     inkscape:label="Cherokee"
     inkscape:connector-curvature="0" />
  <path
     style="font-size:12px;fill:#006bb1;fill-opacity:1;fill-rule:nonzero;stroke:#ffffff;stroke-width:0.60000002;stroke-linecap:butt;stroke-linejoin:bevel;stroke-miterlimit:4;stroke-opacity:1;stroke-dasharray:none;marker-start:none"
     d="m 146.01072,121.55563 6.32346,15.07764 -9.35928,6.88963 -0.8373,-6.82692 -0.4746,-1.30116 -2.62218,-6.35887 -0.237,-0.38999 -9.61518,-5.28402 -4.00344,0.9186 12.05538,-6.6321 8.76972,3.90732"
     id="37121"
     inkscape:label="Mitchell"
     inkscape:connector-curvature="0" />
  <path
     style="font-size:12px;fill:#006bb1;fill-opacity:1;fill-rule:nonzero;stroke:#ffffff;stroke-width:0.60000002;stroke-linecap:butt;stroke-linejoin:bevel;stroke-miterlimit:4;stroke-opacity:1;stroke-dasharray:none;marker-start:none"
     d="m 125.18562,124.28041 4.00344,-0.9186 9.61518,5.28402 0.237,0.39001 2.62218,6.35886 0.4746,1.30116 0.8373,6.82692 -8.7801,9.40457 -8.3958,-8.80427 -6.07902,-12.4635 5.46564,-7.37928"
     id="37199"
     inkscape:label="Yancey"
     inkscape:connector-curvature="0" />
  <path
     style="font-size:12px;fill:#006bb1;fill-opacity:1;fill-rule:nonzero;stroke:#ffffff;stroke-width:0.60000002;stroke-linecap:butt;stroke-linejoin:bevel;stroke-miterlimit:4;stroke-opacity:1;stroke-dasharray:none;marker-start:none"
     d="m 113.65249,126.91436 6.06749,4.74533 6.07902,12.4635 -6.04836,1.29624 -3.66917,1.65528 -2.1747,1.14102 -4.245,2.27227 -8.52642,4.01862 -4.950065,0.62424 -4.97214,-9.03372 4.04136,-11.75545 2.86656,-0.31859 6.108425,-4.3164 4.37706,-3.27156 1.18338,-0.62994 1.71246,-0.90816 0.2976,-0.006 0.84078,0.70974 -0.004,0.03 1.01562,1.28508"
     id="37115"
     inkscape:label="Madison"
     inkscape:connector-curvature="0" />
  <path
     style="font-size:12px;fill:#006bb1;fill-opacity:1;fill-rule:nonzero;stroke:#ffffff;stroke-width:0.60000002;stroke-linecap:butt;stroke-linejoin:bevel;stroke-miterlimit:4;stroke-opacity:1;stroke-dasharray:none;marker-start:none"
     d="m 134.1948,152.92747 6.7245,13.70958 -6.00378,4.74276 -4.20996,-2.49582 -4.44018,2.28168 -5.49846,2.05056 -4.87331,1.077 -2.80734,-0.63629 -1.86576,-0.70003 -0.60102,-0.42839 -1.17102,-0.37981 -1.99866,0.4812 -0.65754,0.3756 -1.88226,2.0052 -8.724725,-19.87949 4.950065,-0.62425 8.52642,-4.01862 4.245,-2.27226 2.1747,-1.14102 3.66917,-1.65528 6.04836,-1.29624 8.3958,8.80428"
     id="37021"
     inkscape:label="Buncombe"
     inkscape:connector-curvature="0" />
  <path
     style="font-size:12px;fill:#006bb1;fill-opacity:1;fill-rule:nonzero;stroke:#ffffff;stroke-width:0.60000002;stroke-linecap:butt;stroke-linejoin:bevel;stroke-miterlimit:4;stroke-opacity:1;stroke-dasharray:none;marker-start:none"
     d="m 134.91552,171.37981 0.3186,5.80428 -5.79444,14.5356 -13.68641,4.93482 -0.74406,-0.5328 -0.3474,-0.81726 -0.86142,-4.67999 -0.018,-2.8671 -0.3924,-2.28931 -1.44066,-2.19791 -7.0416,-8.25972 1.88226,-2.0052 0.65754,-0.3756 1.99866,-0.4812 1.17102,0.3798 0.60102,0.4284 1.86576,0.70002 2.80734,0.6363 4.87331,-1.077 5.49846,-2.05056 4.44018,-2.28169 4.20996,2.49583"
     id="37089"
     inkscape:label="Henderson"
     inkscape:connector-curvature="0" />
  <path
     style="font-size:12px;fill:#006bb1;fill-opacity:1;fill-rule:nonzero;stroke:#ffffff;stroke-width:0.60000002;stroke-linecap:butt;stroke-linejoin:bevel;stroke-miterlimit:4;stroke-opacity:1;stroke-dasharray:none;marker-start:none"
     d="m 153.70104,193.05559 -15.54084,-0.5364 -8.7207,-0.79932 5.79444,-14.5356 3.84534,-0.783 2.50164,-0.52619 0.5538,0.15539 1.81584,1.10496 0.82638,0.72595 8.6532,9.61512 0.4836,1.10262 -0.213,4.47701"
     id="37149"
     inkscape:label="Polk"
     inkscape:connector-curvature="0" />
  <path
     style="font-size:12px;fill:#006bb1;fill-opacity:1;fill-rule:nonzero;stroke:#ffffff;stroke-width:0.60000002;stroke-linecap:butt;stroke-linejoin:bevel;stroke-miterlimit:4;stroke-opacity:1;stroke-dasharray:none;marker-start:none"
     d="m 170.71266,162.26245 -0.4356,17.35374 -3.42222,10.56295 -0.5088,3.28535 -6.68418,-0.2394 -5.96088,-0.1698 0.213,-4.47702 -0.4836,-1.10262 -8.6532,-9.61512 -0.82638,-0.72594 -1.81584,-1.10496 -0.5538,-0.1554 -2.50164,0.5262 -3.84534,0.783 -0.3186,-5.80428 6.00378,-4.74276 21.52836,-3.86928 8.265,-0.5052"
     id="37161"
     inkscape:label="Rutherford"
     inkscape:connector-curvature="0" />
  <path
     style="font-size:12px;fill:#006bb1;fill-opacity:1;fill-rule:nonzero;stroke:#ffffff;stroke-width:0.60000002;stroke-linecap:butt;stroke-linejoin:bevel;stroke-miterlimit:4;stroke-opacity:1;stroke-dasharray:none;marker-start:none"
     d="m 152.33418,136.63327 2.34096,-3.74681 0.4002,0.30359 0.3774,0.64567 1.05714,2.38722 0.2448,0.77274 0.2808,1.78319 -0.81012,2.83782 3.27222,9.89508 2.95086,11.25594 -21.52836,3.86928 -6.7245,-13.70958 8.7801,-9.40458 9.35928,-6.88962"
     id="37111"
     inkscape:label="McDowell"
     inkscape:connector-curvature="0" />
  <path
     style="font-size:12px;fill:#006bb1;fill-opacity:1;fill-rule:nonzero;stroke:#ffffff;stroke-width:0.60000002;stroke-linecap:butt;stroke-linejoin:bevel;stroke-miterlimit:4;stroke-opacity:1;stroke-dasharray:none;marker-start:none"
     d="m 155.0763,109.07719 0.89736,-1.75968 6.77496,13.60752 0.4062,11.65537 -8.47974,0.30599 -2.34096,3.74682 -6.32346,-15.07764 9.06558,-12.47844"
     id="37011"
     inkscape:label="Avery"
     inkscape:connector-curvature="0" />
  <path
     style="font-size:12px;fill:#006bb1;fill-opacity:1;fill-rule:nonzero;stroke:#ffffff;stroke-width:0.60000002;stroke-linecap:butt;stroke-linejoin:bevel;stroke-miterlimit:4;stroke-opacity:1;stroke-dasharray:none;marker-start:none"
     d="m 168.10356,99.357067 5.14182,2.897163 3.12648,3.63018 2.1222,2.04378 4.83378,2.7153 -4.05366,9.60954 -16.52556,0.672 -6.77496,-13.60752 0.62172,-1.1679 3.25338,-2.76666 3.3441,-1.66998 0.0852,-0.048 0.3462,-0.1398 0.2586,0.93222 1.53414,0.7329 0.96348,0.0846 0.1128,0.018 1.33698,-0.2514 0.2724,-3.681363"
     id="37189"
     inkscape:label="Watauga"
     inkscape:connector-curvature="0" />
  <path
     style="font-size:12px;fill:#006bb1;fill-opacity:1;fill-rule:nonzero;stroke:#ffffff;stroke-width:0.60000002;stroke-linecap:butt;stroke-linejoin:bevel;stroke-miterlimit:4;stroke-opacity:1;stroke-dasharray:none;marker-start:none"
     d="m 211.42698,125.27791 -4.79748,20.82126 -13.82916,-1.04495 0.1086,-15.60001 3.70272,-2.29272 1.89186,-0.45359 2.87934,-0.4986 0.9597,0.375 4.36548,-0.4266 3.53952,-0.49801 1.17942,-0.3822"
     id="37003"
     inkscape:label="Alexander"
     inkscape:connector-curvature="0" />
  <path
     style="font-size:12px;fill:#006bb1;fill-opacity:1;fill-rule:nonzero;stroke:#ffffff;stroke-width:0.60000002;stroke-linecap:butt;stroke-linejoin:bevel;stroke-miterlimit:4;stroke-opacity:1;stroke-dasharray:none;marker-start:none"
     d="m 170.56656,83.682667 20.01864,0.74346 0.036,1.55526 3.22992,6.21264 1.91988,2.14908 0.4554,1.04412 0.97194,3.04777 0.024,2.353743 -13.8939,9.85476 -4.83378,-2.7153 -2.1222,-2.04378 -3.12648,-3.63018 -5.14182,-2.897163 2.463,-15.6744"
     id="37009"
     inkscape:label="Ashe"
     inkscape:connector-curvature="0" />
  <path
     style="font-size:12px;fill:#006bb1;fill-opacity:1;fill-rule:nonzero;stroke:#ffffff;stroke-width:0.60000002;stroke-linecap:butt;stroke-linejoin:bevel;stroke-miterlimit:4;stroke-opacity:1;stroke-dasharray:none;marker-start:none"
     d="m 218.47368,84.894377 -3.78552,12.57821 -0.83802,2.1192 -2.87964,0.0624 -0.99696,-1.46424 -0.054,-1.34639 -2.49486,-1.71367 -0.465,-0.1428 -4.0464,0.61585 -5.6895,5.185973 -0.024,-2.353743 -0.97194,-3.04776 -0.4554,-1.04412 -1.91988,-2.14908 -3.22992,-6.21264 -0.036,-1.55526 27.88848,0.468"
     id="37005"
     inkscape:label="Alleghany"
     inkscape:connector-curvature="0" />
  <path
     style="font-size:12px;fill:#006bb1;fill-opacity:1;fill-rule:nonzero;stroke:#ffffff;stroke-width:0.60000002;stroke-linecap:butt;stroke-linejoin:bevel;stroke-miterlimit:4;stroke-opacity:1;stroke-dasharray:none;marker-start:none"
     d="m 197.22174,100.78874 5.6895,-5.185983 4.0464,-0.61584 0.465,0.14279 2.49486,1.71367 0.054,1.34639 0.99696,1.46425 2.87964,-0.0624 0.83802,-2.1192 6.10662,12.745983 -0.2598,14.10726 -9.10812,0.95208 -1.17942,0.3822 -3.53952,0.498 -4.36548,0.4266 -0.9597,-0.375 -2.87934,0.4986 -1.89186,0.4536 -3.70272,2.29272 -13.63476,-9.20118 4.05366,-9.60954 13.8939,-9.85476"
     id="37193"
     inkscape:label="Wilkes"
     inkscape:connector-curvature="0" />
  <path
     style="font-size:12px;fill:#006bb1;fill-opacity:1;fill-rule:nonzero;stroke:#ffffff;stroke-width:0.60000002;stroke-linecap:butt;stroke-linejoin:bevel;stroke-miterlimit:4;stroke-opacity:1;stroke-dasharray:none;marker-start:none"
     d="m 162.74862,120.92503 16.52556,-0.672 13.63476,9.20118 -0.1086,15.6 -1.81566,2.26878 -0.84894,0.8397 -1.33344,-0.081 -9.8109,-1.32558 -10.8975,-8.84712 -4.524,-4.56228 -0.4152,-0.76602 -0.4062,-11.65536"
     id="37027"
     inkscape:label="Caldwell"
     inkscape:connector-curvature="0" />
  <path
     style="font-size:12px;fill:#006bb1;fill-opacity:1;fill-rule:nonzero;stroke:#ffffff;stroke-width:0.60000002;stroke-linecap:butt;stroke-linejoin:bevel;stroke-miterlimit:4;stroke-opacity:1;stroke-dasharray:none;marker-start:none"
     d="m 163.15488,132.5804 0.4152,0.76602 4.524,4.56228 10.8975,8.84712 9.8109,1.32558 1.33344,0.081 0.84894,-0.8397 -10.41036,15.67848 -0.1878,0.3498 -9.67404,-1.08864 -8.265,0.5052 -2.95086,-11.25594 -3.27222,-9.89508 0.81012,-2.83782 -0.2808,-1.7832 -0.2448,-0.77274 -1.05714,-2.38722 -0.3774,-0.64566 -0.4002,-0.3036 8.47974,-0.306"
     id="37023"
     inkscape:label="Burke"
     inkscape:connector-curvature="0" />
  <path
     style="font-size:12px;fill:#006bb1;fill-opacity:1;fill-rule:nonzero;stroke:#ffffff;stroke-width:0.60000002;stroke-linecap:butt;stroke-linejoin:bevel;stroke-miterlimit:4;stroke-opacity:1;stroke-dasharray:none;marker-start:none"
     d="m 180.3867,163.35109 5.25012,11.18598 8.39778,19.83438 -2.4459,-0.096 -25.2426,-0.8112 0.5088,-3.28536 3.42222,-10.56294 0.4356,-17.35374 9.67404,1.08864"
     id="37045"
     inkscape:label="Cleveland"
     inkscape:connector-curvature="0" />
  <path
     style="font-size:12px;fill:#006bb1;fill-opacity:1;fill-rule:nonzero;stroke:#ffffff;stroke-width:0.60000002;stroke-linecap:butt;stroke-linejoin:bevel;stroke-miterlimit:4;stroke-opacity:1;stroke-dasharray:none;marker-start:none"
     d="m 185.63682,174.53707 31.41174,0.87642 -5.11536,19.79004 -17.8986,-0.83208 -8.39778,-19.83438"
     id="37071"
     inkscape:label="Gaston"
     inkscape:connector-curvature="0" />
  <path
     style="font-size:12px;fill:#006bb1;fill-opacity:1;fill-rule:nonzero;stroke:#ffffff;stroke-width:0.60000002;stroke-linecap:butt;stroke-linejoin:bevel;stroke-miterlimit:4;stroke-opacity:1;stroke-dasharray:none;marker-start:none"
     d="m 216.5322,163.98523 0.90714,4.656 -0.3906,6.77226 -31.41174,-0.87642 -5.25012,-11.18598 0.1878,-0.34979 35.95788,0.98375"
     id="37109"
     inkscape:label="Lincoln"
     inkscape:connector-curvature="0" />
  <path
     style="font-size:12px;fill:#006bb1;fill-opacity:1;fill-rule:nonzero;stroke:#ffffff;stroke-width:0.60000002;stroke-linecap:butt;stroke-linejoin:bevel;stroke-miterlimit:4;stroke-opacity:1;stroke-dasharray:none;marker-start:none"
     d="m 192.80034,145.05421 13.82916,1.04496 7.34226,5.73312 1.9413,2.56386 2.41818,4.24098 -1.79904,5.3481 -35.95788,-0.98376 10.41036,-15.67848 1.81566,-2.26878"
     id="37035"
     inkscape:label="Catawba"
     inkscape:connector-curvature="0" />
  <path
     style="font-size:12px;fill:#006bb1;fill-opacity:1;fill-rule:nonzero;stroke:#ffffff;stroke-width:0.60000002;stroke-linecap:butt;stroke-linejoin:bevel;stroke-miterlimit:4;stroke-opacity:1;stroke-dasharray:none;marker-start:none"
     d="m 220.5351,124.32583 11.77716,0.0708 -0.5766,15.48078 -2.55198,9.74436 -1.0941,4.19172 2.20326,10.13502 0.1986,1.49928 0.054,1.4007 -2.9577,0.06 -10.14906,1.73496 -0.90714,-4.656 1.79904,-5.3481 -2.41818,-4.24098 -1.9413,-2.56386 -7.34226,-5.73312 4.79748,-20.82126 9.10812,-0.95208"
     id="37097"
     inkscape:label="Iredell"
     inkscape:connector-curvature="0" />
  <path
     style="font-size:12px;fill:#006bb1;fill-opacity:1;fill-rule:nonzero;stroke:#ffffff;stroke-width:0.60000002;stroke-linecap:butt;stroke-linejoin:bevel;stroke-miterlimit:4;stroke-opacity:1;stroke-dasharray:none;marker-start:none"
     d="m 217.43934,168.64123 10.14906,-1.73496 -0.1308,0.55141 0.012,0.5226 1.44372,7.12872 6.52392,10.29606 7.3863,4.40664 -17.87856,16.55436 -4.27758,-5.77597 -8.73486,-5.38649 5.11536,-19.79004 0.3906,-6.77226"
     id="37119"
     inkscape:label="Mecklenburg"
     inkscape:connector-curvature="0" />
  <path
     style="font-size:12px;fill:#006bb1;fill-opacity:1;fill-rule:nonzero;stroke:#ffffff;stroke-width:0.60000002;stroke-linecap:butt;stroke-linejoin:bevel;stroke-miterlimit:4;stroke-opacity:1;stroke-dasharray:none;marker-start:none"
     d="m 231.73554,139.87753 15.73788,8.18352 7.93878,1.63614 8.0637,10.59366 1.75104,5.86896 -7.0551,0.29701 -27.62574,0.3918 -0.054,-1.40071 -0.1986,-1.49928 -2.20326,-10.13502 1.0941,-4.19172 2.55198,-9.74436"
     id="37159"
     inkscape:label="Rowan"
     inkscape:connector-curvature="0" />
  <path
     style="font-size:12px;fill:#006bb1;fill-opacity:1;fill-rule:nonzero;stroke:#ffffff;stroke-width:0.60000002;stroke-linecap:butt;stroke-linejoin:bevel;stroke-miterlimit:4;stroke-opacity:1;stroke-dasharray:none;marker-start:none"
     d="m 232.31226,124.39675 12.20736,0.0696 6.43092,5.53447 1.03788,0.77339 0.2826,0.5844 0.4416,2.10828 0.018,2.15862 -1.17186,4.44745 -2.52132,1.23851 -1.5627,6.74964 -15.73788,-8.18352 0.5766,-15.48078"
     id="37059"
     inkscape:label="Davie"
     inkscape:connector-curvature="0" />
  <path
     style="font-size:12px;fill:#006bb1;fill-opacity:1;fill-rule:nonzero;stroke:#ffffff;stroke-width:0.60000002;stroke-linecap:butt;stroke-linejoin:bevel;stroke-miterlimit:4;stroke-opacity:1;stroke-dasharray:none;marker-start:none"
     d="m 246.86484,109.20589 -2.34522,15.26064 -12.20736,-0.0696 -11.77716,-0.0708 0.2598,-14.10726 5.69988,-2.54369 9.3909,-1.81548 3.63294,0.4476 5.51328,1.74317 1.2339,0.5826 0.5994,0.57361"
     id="37197"
     inkscape:label="Yadkin"
     inkscape:connector-curvature="0" />
  <path
     style="font-size:12px;fill:#006bb1;fill-opacity:1;fill-rule:nonzero;stroke:#ffffff;stroke-width:0.60000002;stroke-linecap:butt;stroke-linejoin:bevel;stroke-miterlimit:4;stroke-opacity:1;stroke-dasharray:none;marker-start:none"
     d="m 236.3535,84.766867 10.62768,0.324 -0.1332,22.525863 0.018,1.58922 -0.5994,-0.5736 -1.2339,-0.5826 -5.51328,-1.74318 -3.63294,-0.4476 -9.3909,1.81548 -5.69988,2.5437 -6.10662,-12.745983 3.78552,-12.57822 3.9429,0.1332 13.93692,-0.2604"
     id="37171"
     inkscape:label="Surry"
     inkscape:connector-curvature="0" />
  <path
     style="font-size:12px;fill:#006bb1;fill-opacity:1;fill-rule:nonzero;stroke:#ffffff;stroke-width:0.60000002;stroke-linecap:butt;stroke-linejoin:bevel;stroke-miterlimit:4;stroke-opacity:1;stroke-dasharray:none;marker-start:none"
     d="m 272.4597,84.983707 0.1788,22.241883 -25.79034,0.3912 0.1332,-22.525863 23.86062,-0.06 1.6179,-0.048"
     id="37169"
     inkscape:label="Stokes"
     inkscape:connector-curvature="0" />
  <path
     style="font-size:12px;fill:#006bb1;fill-opacity:1;fill-rule:nonzero;stroke:#ffffff;stroke-width:0.60000002;stroke-linecap:butt;stroke-linejoin:bevel;stroke-miterlimit:4;stroke-opacity:1;stroke-dasharray:none;marker-start:none"
     d="m 246.84822,107.61667 25.79034,-0.3912 0.1212,19.2417 -21.80904,3.5337 -6.43092,-5.53446 2.34522,-15.26064 -0.018,-1.58922"
     id="37067"
     inkscape:label="Forsyth"
     inkscape:connector-curvature="0" />
  <path
     style="font-size:12px;fill:#006bb1;fill-opacity:1;fill-rule:nonzero;stroke:#ffffff;stroke-width:0.60000002;stroke-linecap:butt;stroke-linejoin:bevel;stroke-miterlimit:4;stroke-opacity:1;stroke-dasharray:none;marker-start:none"
     d="m 250.95054,130.00099 21.80904,-3.5337 -0.042,7.0083 -0.2298,32.343 -7.26108,0.3414 -1.75104,-5.86896 -8.0637,-10.59366 -7.93878,-1.63614 1.5627,-6.74964 2.52132,-1.23852 1.17186,-4.44744 -0.018,-2.15862 -0.4416,-2.10828 -0.2826,-0.5844 -1.03788,-0.7734"
     id="37057"
     inkscape:label="Davidson"
     inkscape:connector-curvature="0" />
  <path
     style="font-size:12px;fill:#006bb1;fill-opacity:1;fill-rule:nonzero;stroke:#ffffff;stroke-width:0.60000002;stroke-linecap:butt;stroke-linejoin:bevel;stroke-miterlimit:4;stroke-opacity:1;stroke-dasharray:none;marker-start:none"
     d="m 258.17184,166.45681 7.0551,-0.297 4.41024,3.06258 0.3414,0.2892 2.24154,4.94946 0.8169,2.54778 1.05798,14.25906 0.024,0.4638 -0.2088,0.6798 -1.13364,1.67256 -12.79362,-3.7608 -14.29314,1.2168 12.47934,-25.08378"
     id="37167"
     inkscape:label="Stanly"
     inkscape:connector-curvature="0" />
  <path
     style="font-size:12px;fill:#006bb1;fill-opacity:1;fill-rule:nonzero;stroke:#ffffff;stroke-width:0.60000002;stroke-linecap:butt;stroke-linejoin:bevel;stroke-miterlimit:4;stroke-opacity:1;stroke-dasharray:none;marker-start:none"
     d="m 258.17184,166.45681 -12.47934,25.08378 -2.8683,-1.72896 -7.3863,-4.40664 -6.52392,-10.29606 -1.44372,-7.12872 -0.012,-0.5226 0.1308,-0.5514 2.9577,-0.06 27.62574,-0.3918"
     id="37025"
     inkscape:label="Cabarrus"
     inkscape:connector-curvature="0" />
  <path
     style="font-size:12px;fill:#006bb1;fill-opacity:1;fill-rule:nonzero;stroke:#ffffff;stroke-width:0.60000002;stroke-linecap:butt;stroke-linejoin:bevel;stroke-miterlimit:4;stroke-opacity:1;stroke-dasharray:none;marker-start:none"
     d="m 259.98564,190.32379 -1.89174,29.81772 -15.21786,0.15001 -13.64556,0.12539 -1.22718,-0.4116 0.0702,-0.72918 0.65298,-7.88082 -3.78114,-5.02896 17.87856,-16.55436 2.8683,1.72896 14.29314,-1.2168"
     id="37179"
     inkscape:label="Union"
     inkscape:connector-curvature="0" />
  <path
     style="font-size:12px;fill:#006bb1;fill-opacity:1;fill-rule:nonzero;stroke:#ffffff;stroke-width:0.60000002;stroke-linecap:butt;stroke-linejoin:bevel;stroke-miterlimit:4;stroke-opacity:1;stroke-dasharray:none;marker-start:none"
     d="m 272.77926,194.08459 0.0678,0.69379 0.5028,1.7109 2.76564,1.55123 1.60554,0.3912 0.3342,-0.006 0.4194,-0.2754 0.1842,-0.19261 0.2976,-0.75234 1.41774,-1.14264 0.86298,-0.3714 0.99258,0.1374 0.93624,1.5528 1.37526,3.10957 3.09546,11.69987 -0.054,0.40441 -0.80664,1.36643 -3.86646,6.01938 -24.81384,0.1626 1.89174,-29.81772 12.79362,3.7608"
     id="37007"
     inkscape:label="Anson"
     inkscape:connector-curvature="0" />
  <path
     style="font-size:12px;fill:#006bb1;fill-opacity:1;fill-rule:nonzero;stroke:#ffffff;stroke-width:0.60000002;stroke-linecap:butt;stroke-linejoin:bevel;stroke-miterlimit:4;stroke-opacity:1;stroke-dasharray:none;marker-start:none"
     d="m 291.73248,84.418747 12.60594,-0.3594 -0.4842,22.701423 -0.018,0.65178 -31.1982,-0.1866 -0.1788,-22.241873 19.27278,-0.5652"
     id="37157"
     inkscape:label="Rockingham"
     inkscape:connector-curvature="0" />
  <path
     style="font-size:12px;fill:#006bb1;fill-opacity:1;fill-rule:nonzero;stroke:#ffffff;stroke-width:0.60000002;stroke-linecap:butt;stroke-linejoin:bevel;stroke-miterlimit:4;stroke-opacity:1;stroke-dasharray:none;marker-start:none"
     d="m 272.63856,107.22559 31.1982,0.1866 0.3636,26.64666 -31.48254,-0.5832 0.042,-7.0083 -0.1212,-19.2417"
     id="37081"
     inkscape:label="Guilford"
     inkscape:connector-curvature="0" />
  <path
     style="font-size:12px;fill:#006bb1;fill-opacity:1;fill-rule:nonzero;stroke:#ffffff;stroke-width:0.60000002;stroke-linecap:butt;stroke-linejoin:bevel;stroke-miterlimit:4;stroke-opacity:1;stroke-dasharray:none;marker-start:none"
     d="m 304.20036,134.05892 0.1266,4.38462 0.0684,25.58226 -13.33896,0.75503 -18.56886,1.03776 0.2298,-32.34299 31.48254,0.5832"
     id="37151"
     inkscape:label="Randolph"
     inkscape:connector-curvature="0" />
  <path
     style="font-size:12px;fill:#006bb1;fill-opacity:1;fill-rule:nonzero;stroke:#ffffff;stroke-width:0.60000002;stroke-linecap:butt;stroke-linejoin:bevel;stroke-miterlimit:4;stroke-opacity:1;stroke-dasharray:none;marker-start:none"
     d="m 291.05688,164.78083 4.18848,17.29021 0.054,0.98826 0.7065,1.59372 2.94504,4.5924 1.2876,1.37724 1.48482,0.91392 -6.29508,-0.5124 -8.69226,-0.52261 -3.56688,1.74817 -6.78966,1.92665 -1.41324,0.1014 -2.18412,-0.1926 1.13364,-1.67256 0.2088,-0.6798 -0.024,-0.46379 -1.05798,-14.25906 -0.8169,-2.54778 -2.24154,-4.94946 -0.3414,-0.2892 -4.41024,-3.06258 7.26108,-0.3414 18.56886,-1.03776"
     id="37123"
     inkscape:label="Montgomery"
     inkscape:connector-curvature="0" />
  <path
     style="font-size:12px;fill:#006bb1;fill-opacity:1;fill-rule:nonzero;stroke:#ffffff;stroke-width:0.60000002;stroke-linecap:butt;stroke-linejoin:bevel;stroke-miterlimit:4;stroke-opacity:1;stroke-dasharray:none;marker-start:none"
     d="m 272.77926,194.08459 2.18412,0.19261 1.41324,-0.10141 6.78966,-1.92665 3.56688,-1.74816 8.69226,0.5226 6.29508,0.5124 10.10754,9.04074 -3.28992,1.45332 -2.53434,1.72734 -1.17342,0.95232 -0.73986,2.98686 0.1146,0.96678 0.4422,0.9636 -1.49484,4.33014 -1.25382,1.92852 -3.84042,3.72738 -15.15066,0.3654 3.86646,-6.01938 0.80664,-1.36644 0.054,-0.4044 -3.09546,-11.69988 -1.37526,-3.10956 -0.93624,-1.5528 -0.99258,-0.1374 -0.86298,0.3714 -1.41774,1.14264 -0.2976,0.75234 -0.1842,0.1926 -0.4194,0.2754 -0.3342,0.006 -1.60554,-0.3912 -2.76564,-1.55124 -0.5028,-1.7109 -0.0678,-0.69378"
     id="37153"
     inkscape:label="Richmond"
     inkscape:connector-curvature="0" />
  <path
     style="font-size:12px;fill:#006bb1;fill-opacity:1;fill-rule:nonzero;stroke:#ffffff;stroke-width:0.60000002;stroke-linecap:butt;stroke-linejoin:bevel;stroke-miterlimit:4;stroke-opacity:1;stroke-dasharray:none;marker-start:none"
     d="m 319.3989,216.22711 -6.57474,16.45686 -14.76576,-13.0704 3.84042,-3.72738 1.25382,-1.92852 1.49484,-4.33014 -0.4422,-0.9636 -0.1146,-0.96678 0.73986,-2.98686 1.17342,-0.95232 2.53434,-1.72734 3.28992,-1.45332 7.57086,15.6498"
     id="37165"
     inkscape:label="Scotland"
     inkscape:connector-curvature="0" />
  <path
     style="font-size:12px;fill:#006bb1;fill-opacity:1;fill-rule:nonzero;stroke:#ffffff;stroke-width:0.60000002;stroke-linecap:butt;stroke-linejoin:bevel;stroke-miterlimit:4;stroke-opacity:1;stroke-dasharray:none;marker-start:none"
     d="m 327.31591,83.115727 -0.036,23.362923 -6.40164,0.1266 -17.02351,0.1548 0.4842,-22.701423 2.49924,-0.1146 7.84932,-0.3024 7.66669,-0.3396 4.96224,-0.1866"
     id="37033"
     inkscape:label="Caswell"
     inkscape:connector-curvature="0" />
  <path
     style="font-size:12px;fill:#006bb1;fill-opacity:1;fill-rule:nonzero;stroke:#ffffff;stroke-width:0.60000002;stroke-linecap:butt;stroke-linejoin:bevel;stroke-miterlimit:4;stroke-opacity:1;stroke-dasharray:none;marker-start:none"
     d="m 303.8541,106.76047 17.02351,-0.1548 1.5951,28.56126 -18.14545,3.27678 -0.1266,-4.38462 -0.3636,-26.64666 0.018,-0.65178"
     id="37001"
     inkscape:label="Alamance"
     inkscape:connector-curvature="0" />
  <path
     style="font-size:12px;fill:#006bb1;fill-opacity:1;fill-rule:nonzero;stroke:#ffffff;stroke-width:0.60000002;stroke-linecap:butt;stroke-linejoin:bevel;stroke-miterlimit:4;stroke-opacity:1;stroke-dasharray:none;marker-start:none"
     d="m 317.26338,163.35091 11.08375,16.002 5.8158,8.71422 -0.036,1.42482 -9.5034,-2.54292 -2.34342,1.52958 -3.42667,3.10014 -4.7223,5.90106 -2.30574,3.0975 -10.10754,-9.04074 -1.48482,-0.91392 -1.2876,-1.37724 -2.94504,-4.5924 -0.7065,-1.59372 -0.054,-0.98826 -4.18848,-17.2902 13.33896,-0.75504 12.86754,-0.67488"
     id="37125"
     inkscape:label="Moore"
     inkscape:connector-curvature="0" />
  <path
     style="font-size:12px;fill:#006bb1;fill-opacity:1;fill-rule:nonzero;stroke:#ffffff;stroke-width:0.60000002;stroke-linecap:butt;stroke-linejoin:bevel;stroke-miterlimit:4;stroke-opacity:1;stroke-dasharray:none;marker-start:none"
     d="m 311.82804,200.57731 2.30574,-3.0975 4.7223,-5.90106 3.42667,-3.10014 2.34342,-1.52958 9.5034,2.54292 4.6716,16.9935 -8.4612,8.631 -3.58434,1.08552 -7.35673,0.024 -7.57086,-15.6498"
     id="37093"
     inkscape:label="Hoke"
     inkscape:connector-curvature="0" />
  <path
     style="font-size:12px;fill:#006bb1;fill-opacity:1;fill-rule:nonzero;stroke:#ffffff;stroke-width:0.60000002;stroke-linecap:butt;stroke-linejoin:bevel;stroke-miterlimit:4;stroke-opacity:1;stroke-dasharray:none;marker-start:none"
     d="m 338.80117,206.48545 8.78988,8.889 6.5223,11.05296 0.0816,1.16214 -2.50056,13.5795 -1.05204,1.52028 -3.34632,2.47524 -4.83378,7.49682 -3.88722,4.81116 -24.98239,-24.08274 -0.7686,-0.70584 6.57474,-16.45686 7.35673,-0.024 3.58434,-1.08552 8.4612,-8.631"
     id="37155"
     inkscape:label="Robeson"
     inkscape:connector-curvature="0" />
  <path
     style="font-size:12px;fill:#006bb1;fill-opacity:1;fill-rule:nonzero;stroke:#ffffff;stroke-width:0.60000002;stroke-linecap:butt;stroke-linejoin:bevel;stroke-miterlimit:4;stroke-opacity:1;stroke-dasharray:none;marker-start:none"
     d="m 389.93647,247.32014 6.13686,3.01649 -5.32074,11.23945 -8.08554,3.19518 -7.017,1.38042 -0.72738,-0.042 -0.5064,0.1116 -1.84788,1.71318 -4.3203,10.13597 -1.71618,5.84407 -27.95706,-26.44416 3.88722,-4.81116 4.83378,-7.49682 3.34632,-2.47524 2.4774,1.40238 0.5346,0.0738 1.34634,-0.054 7.07388,-0.8274 7.539,2.73174 8.36724,3.66396 6.95238,0.4458 5.00286,-2.8035"
     id="37047"
     inkscape:label="Columbus"
     inkscape:connector-curvature="0" />
  <path
     style="font-size:12px;fill:#006bb1;fill-opacity:1;fill-rule:nonzero;stroke:#ffffff;stroke-width:0.60000002;stroke-linecap:butt;stroke-linejoin:bevel;stroke-miterlimit:4;stroke-opacity:1;stroke-dasharray:none;marker-start:none"
     d="m 396.07333,250.33663 8.48394,1.548 4.26666,6.73147 2.49768,9.18845 0.62424,4.95006 0.069,1.69332 0.093,8.4018 -5.03814,3.45282 -4.96902,-1.12284 -2.6898,-0.3474 -2.58816,-0.03 -6.28734,0.43919 -6.59232,1.11199 -0.2244,0.048 -0.024,-0.003 -7.84452,3.2043 -2.00454,1.22514 -7.31292,-6.9102 1.71618,-5.84406 4.3203,-10.13598 1.84788,-1.71318 0.5064,-0.1116 0.72738,0.042 7.017,-1.38042 8.08554,-3.19518 5.32074,-11.23944"
     id="37019"
     inkscape:label="Brunswick"
     inkscape:connector-curvature="0" />
  <path
     style="font-size:12px;fill:#006bb1;fill-opacity:1;fill-rule:nonzero;stroke:#ffffff;stroke-width:0.60000002;stroke-linecap:butt;stroke-linejoin:bevel;stroke-miterlimit:4;stroke-opacity:1;stroke-dasharray:none;marker-start:none"
     d="m 424.59799,253.91527 -1.3929,1.57614 -1.3926,2.18796 -3.81438,6.65046 -0.7098,1.76137 -1.80168,5.14782 -0.1908,0.6339 -3.1887,10.97682 -0.093,-8.4018 -0.069,-1.69332 -0.62424,-4.95006 -2.49768,-9.18846 -4.26666,-6.73146 6.45972,-2.8263 5.14404,-1.63315 2.49444,0.3144 -0.5916,0.68748 0.186,0.62538 0.8595,1.10004 3.90756,3.54426 1.581,0.2184"
     id="37129"
     inkscape:label="New Hanover"
     inkscape:connector-curvature="0" />
  <path
     style="font-size:12px;fill:#006bb1;fill-opacity:1;fill-rule:nonzero;stroke:#ffffff;stroke-width:0.60000002;stroke-linecap:butt;stroke-linejoin:bevel;stroke-miterlimit:4;stroke-opacity:1;stroke-dasharray:none;marker-start:none"
     d="m 373.14289,212.54575 16.29498,22.77918 -1.0284,1.30554 0.1152,0.3918 1.26384,2.11896 1.0008,0.82272 1.8453,0.4974 2.10366,1.52028 -4.8021,5.33886 -5.00286,2.8035 -6.95238,-0.4458 -8.36724,-3.66396 -7.539,-2.73174 -7.07388,0.8274 -1.34634,0.054 -0.5346,-0.0738 -2.4774,-1.40238 1.05204,-1.52028 2.50056,-13.5795 -0.0816,-1.16214 -6.5223,-11.05296 3.64608,-1.13754 2.6715,-0.309 16.81992,-0.8736 1.7709,-0.1914 0.64344,-0.3168"
     id="37017"
     inkscape:label="Bladen"
     inkscape:connector-curvature="0" />
  <path
     style="font-size:12px;fill:#006bb1;fill-opacity:1;fill-rule:nonzero;stroke:#ffffff;stroke-width:0.60000002;stroke-linecap:butt;stroke-linejoin:bevel;stroke-miterlimit:4;stroke-opacity:1;stroke-dasharray:none;marker-start:none"
     d="m 364.04389,182.62039 -2.81724,12.0579 -0.078,0.56461 1.04784,3.50646 1.47426,3.97122 0.3558,0.7578 9.11658,9.06738 -0.64344,0.3168 -1.7709,0.1914 -16.81992,0.8736 -2.6715,0.309 -3.64608,1.13754 -8.78988,-8.889 -4.6716,-16.9935 0.036,-1.42482 2.01936,-0.5868 11.7369,-3.53856 5.84244,-2.17266 1.90674,-0.1668 8.37552,1.01814"
     id="37051"
     inkscape:label="Cumberland"
     inkscape:connector-curvature="0" />
  <path
     style="font-size:12px;fill:#006bb1;fill-opacity:1;fill-rule:nonzero;stroke:#ffffff;stroke-width:0.60000002;stroke-linecap:butt;stroke-linejoin:bevel;stroke-miterlimit:4;stroke-opacity:1;stroke-dasharray:none;marker-start:none"
     d="m 343.87963,134.98153 -0.1452,1.97262 -4.60194,18.31044 5.11848,1.88238 -3.27912,4.92553 -5.33892,-5.54712 -1.08108,-0.9429 -0.5964,-0.37321 -1.60014,-0.69359 -1.25106,-0.0636 -1.14882,0.2046 -3.14166,3.624 -3.09804,2.03706 -4.82101,2.49552 -1.63098,0.5376 -12.86754,0.67488 -0.0684,-25.58226 18.14545,-3.27678 14.54088,0.453 6.86604,-0.63804"
     id="37037"
     inkscape:label="Chatham"
     inkscape:connector-curvature="0" />
  <path
     style="font-size:12px;fill:#006bb1;fill-opacity:1;fill-rule:nonzero;stroke:#ffffff;stroke-width:0.60000002;stroke-linecap:butt;stroke-linejoin:bevel;stroke-miterlimit:4;stroke-opacity:1;stroke-dasharray:none;marker-start:none"
     d="m 344.25073,157.14697 13.11498,4.45938 11.19972,15.38202 -4.52154,5.63202 -8.37552,-1.01814 -1.90674,0.1668 -5.84244,2.17266 -11.7369,3.53856 -2.01936,0.5868 -5.8158,-8.71421 12.62448,-17.28042 3.27912,-4.92553"
     id="37085"
     inkscape:label="Harnett"
     inkscape:connector-curvature="0" />
  <path
     style="font-size:12px;fill:#006bb1;fill-opacity:1;fill-rule:nonzero;stroke:#ffffff;stroke-width:0.60000002;stroke-linecap:butt;stroke-linejoin:bevel;stroke-miterlimit:4;stroke-opacity:1;stroke-dasharray:none;marker-start:none"
     d="m 317.26338,163.35091 1.63098,-0.5376 4.82101,-2.49552 3.09804,-2.03706 3.14166,-3.624 1.14882,-0.2046 1.25106,0.0636 1.60014,0.6936 0.5964,0.3732 1.08108,0.9429 5.33892,5.54712 -12.62448,17.28042 -11.08375,-16.002"
     id="37105"
     inkscape:label="Lee"
     inkscape:connector-curvature="0" />
  <path
     style="font-size:12px;fill:#006bb1;fill-opacity:1;fill-rule:nonzero;stroke:#ffffff;stroke-width:0.60000002;stroke-linecap:butt;stroke-linejoin:bevel;stroke-miterlimit:4;stroke-opacity:1;stroke-dasharray:none;marker-start:none"
     d="m 327.27925,106.47865 12.58254,-0.2778 -2.8482,29.41903 -14.54088,-0.453 -1.5951,-28.56126 6.40164,-0.1266"
     id="37135"
     inkscape:label="Orange"
     inkscape:connector-curvature="0" />
  <path
     style="font-size:12px;fill:#006bb1;fill-opacity:1;fill-rule:nonzero;stroke:#ffffff;stroke-width:0.60000002;stroke-linecap:butt;stroke-linejoin:bevel;stroke-miterlimit:4;stroke-opacity:1;stroke-dasharray:none;marker-start:none"
     d="m 327.31591,83.115727 21.0906,-0.87708 0.69432,23.815263 -9.23904,0.1464 -12.58254,0.2778 0.036,-23.362923"
     id="37145"
     inkscape:label="Person"
     inkscape:connector-curvature="0" />
  <path
     style="font-size:12px;fill:#006bb1;fill-opacity:1;fill-rule:nonzero;stroke:#ffffff;stroke-width:0.60000002;stroke-linecap:butt;stroke-linejoin:bevel;stroke-miterlimit:4;stroke-opacity:1;stroke-dasharray:none;marker-start:none"
     d="m 349.10083,106.05391 3.84498,12.67572 3.2937,4.39224 -0.75618,3.49944 -0.9597,1.86012 -1.70826,2.19282 -4.2279,4.16442 -4.70784,0.1428 -6.86604,0.63804 2.8482,-29.41902 9.23904,-0.1464"
     id="37063"
     inkscape:label="Durham"
     inkscape:connector-curvature="0" />
  <path
     style="font-size:12px;fill:#006bb1;fill-opacity:1;fill-rule:nonzero;stroke:#ffffff;stroke-width:0.60000002;stroke-linecap:butt;stroke-linejoin:bevel;stroke-miterlimit:4;stroke-opacity:1;stroke-dasharray:none;marker-start:none"
     d="m 397.74955,221.81557 27.28962,-1.3347 11.51814,21.18625 -11.95932,12.24816 -1.581,-0.2184 -3.90756,-3.54426 -0.8595,-1.10004 -0.186,-0.62538 0.5916,-0.68748 -2.49444,-0.3144 -5.14404,1.63314 -6.45972,2.8263 -8.48394,-1.548 -6.13686,-3.0165 4.8021,-5.33886 -2.10366,-1.52028 -1.8453,-0.4974 -1.0008,-0.82272 -1.26384,-2.11896 -0.1152,-0.3918 1.0284,-1.30554 8.31168,-13.50936"
     id="37141"
     inkscape:label="Pender"
     inkscape:connector-curvature="0" />
  <path
     style="font-size:12px;fill:#006bb1;fill-opacity:1;fill-rule:nonzero;stroke:#ffffff;stroke-width:0.60000002;stroke-linecap:butt;stroke-linejoin:bevel;stroke-miterlimit:4;stroke-opacity:1;stroke-dasharray:none;marker-start:none"
     d="m 368.56543,176.98837 14.93454,1.54908 9.22632,7.08978 0.68046,8.53146 1.48482,13.7124 -2.7279,13.03326 4.2669,1.95246 0.4098,-0.1614 0.909,-0.8799 -8.31168,13.50936 -16.29498,-22.77918 -9.11658,-9.06738 -0.3558,-0.7578 -1.47426,-3.97122 -1.04784,-3.50646 0.078,-0.5646 2.81724,-12.0579 4.52154,-5.63202"
     id="37163"
     inkscape:label="Sampson"
     inkscape:connector-curvature="0" />
  <path
     style="font-size:12px;fill:#006bb1;fill-opacity:1;fill-rule:nonzero;stroke:#ffffff;stroke-width:0.60000002;stroke-linecap:butt;stroke-linejoin:bevel;stroke-miterlimit:4;stroke-opacity:1;stroke-dasharray:none;marker-start:none"
     d="m 397.35883,154.51651 15.09294,0.1842 1.953,15.71532 -0.9588,15.04638 -20.71968,0.165 -9.22632,-7.08978 2.89254,-3.17994 5.97852,-7.49616 4.9878,-13.34484"
     id="37191"
     inkscape:label="Wayne"
     inkscape:connector-curvature="0" />
  <path
     style="font-size:12px;fill:#006bb1;fill-opacity:1;fill-rule:nonzero;stroke:#ffffff;stroke-width:0.60000002;stroke-linecap:butt;stroke-linejoin:bevel;stroke-miterlimit:4;stroke-opacity:1;stroke-dasharray:none;marker-start:none"
     d="m 388.81009,143.61968 2.26494,3.2022 2.40738,6.51084 3.87642,1.18379 -4.9878,13.34484 -5.97852,7.49617 -2.89254,3.17994 -14.93454,-1.54908 -11.19972,-15.38202 10.06596,-10.64418 9.91674,-8.3814 7.21854,-5.55606 4.24314,6.59496"
     id="37101"
     inkscape:label="Johnston"
     inkscape:connector-curvature="0" />
  <path
     style="font-size:12px;fill:#006bb1;fill-opacity:1;fill-rule:nonzero;stroke:#ffffff;stroke-width:0.60000002;stroke-linecap:butt;stroke-linejoin:bevel;stroke-miterlimit:4;stroke-opacity:1;stroke-dasharray:none;marker-start:none"
     d="m 352.94581,118.72963 12.73116,3.29184 3.39168,1.3167 4.22634,1.98324 7.68552,5.83506 1.8984,2.08554 1.63434,2.98782 0.054,0.79488 -7.21854,5.55606 -9.91674,8.3814 -10.06596,10.64418 -13.11498,-4.45938 -5.11848,-1.88238 4.60194,-18.31044 0.1452,-1.97262 4.70784,-0.1428 4.2279,-4.16442 1.70826,-2.19282 0.9597,-1.86012 0.75618,-3.49944 -3.2937,-4.39224"
     id="37183"
     inkscape:label="Wake"
     inkscape:connector-curvature="0" />
  <path
     style="font-size:12px;fill:#006bb1;fill-opacity:1;fill-rule:nonzero;stroke:#ffffff;stroke-width:0.60000002;stroke-linecap:butt;stroke-linejoin:bevel;stroke-miterlimit:4;stroke-opacity:1;stroke-dasharray:none;marker-start:none"
     d="m 352.22737,82.027747 17.0952,-0.80532 -2.39838,2.32152 -0.3684,1.48152 -0.1764,5.0454 0.5628,11.925303 0.5088,7.36296 0.76968,0.5664 -2.54382,12.09564 -12.73116,-3.29184 -3.84498,-12.67572 -0.69432,-23.815263 3.82086,-0.2106"
     id="37077"
     inkscape:label="Granville"
     inkscape:connector-curvature="0" />
  <path
     style="font-size:12px;fill:#006bb1;fill-opacity:1;fill-rule:nonzero;stroke:#ffffff;stroke-width:0.60000002;stroke-linecap:butt;stroke-linejoin:bevel;stroke-miterlimit:4;stroke-opacity:1;stroke-dasharray:none;marker-start:none"
     d="m 369.32257,81.222427 8.20386,-0.50159 2.09682,21.556023 -11.40246,7.64904 -0.76968,-0.56641 -0.5088,-7.36296 -0.5628,-11.925303 0.1764,-5.0454 0.3684,-1.48152 2.39838,-2.32151"
     id="37181"
     inkscape:label="Vance"
     inkscape:connector-curvature="0" />
  <path
     style="font-size:12px;fill:#006bb1;fill-opacity:1;fill-rule:nonzero;stroke:#ffffff;stroke-width:0.60000002;stroke-linecap:butt;stroke-linejoin:bevel;stroke-miterlimit:4;stroke-opacity:1;stroke-dasharray:none;marker-start:none"
     d="m 394.62721,79.831447 9.03108,-0.5268 0.2688,2.96268 -5.44398,24.008763 -18.86004,-3.99948 -2.09682,-21.556023 17.10078,-0.88931"
     id="37185"
     inkscape:label="Warren"
     inkscape:connector-curvature="0" />
  <path
     style="font-size:12px;fill:#006bb1;fill-opacity:1;fill-rule:nonzero;stroke:#ffffff;stroke-width:0.60000002;stroke-linecap:butt;stroke-linejoin:bevel;stroke-miterlimit:4;stroke-opacity:1;stroke-dasharray:none;marker-start:none"
     d="m 398.48329,106.27627 -13.91634,30.74844 -0.054,-0.79488 -1.63434,-2.98782 -1.8984,-2.08554 -7.68552,-5.83506 -4.22634,-1.98324 -3.39168,-1.3167 2.54382,-12.09564 11.40246,-7.64904 18.86004,3.99948"
     id="37069"
     inkscape:label="Franklin"
     inkscape:connector-curvature="0" />
  <path
     style="font-size:12px;fill:#006bb1;fill-opacity:1;fill-rule:nonzero;stroke:#ffffff;stroke-width:0.60000002;stroke-linecap:butt;stroke-linejoin:bevel;stroke-miterlimit:4;stroke-opacity:1;stroke-dasharray:none;marker-start:none"
     d="m 417.79801,109.1333 -0.68058,3.69768 -4.25604,12.30114 -1.96608,6.68784 -22.08522,11.79972 -4.24314,-6.59496 13.91634,-30.74844 19.31472,2.85702"
     id="37127"
     inkscape:label="Nash"
     inkscape:connector-curvature="0" />
  <path
     style="font-size:12px;fill:#006bb1;fill-opacity:1;fill-rule:nonzero;stroke:#ffffff;stroke-width:0.60000002;stroke-linecap:butt;stroke-linejoin:bevel;stroke-miterlimit:4;stroke-opacity:1;stroke-dasharray:none;marker-start:none"
     d="m 448.96537,76.583527 4.86198,5.53573 -3.63684,8.34672 -2.53314,9.607673 -4.78104,6.41388 -0.4044,0.2952 -0.60252,-0.1986 -4.91208,-2.93808 -12.19182,-10.964283 -0.4236,-5.001 -5.63436,-4.11006 -14.44674,-1.74816 -0.3342,0.4446 -0.2688,-2.96268 8.1627,-0.4224 29.0319,-1.66932 8.11248,-0.6294"
     id="37131"
     inkscape:label="Northampton"
     inkscape:connector-curvature="0" />
  <path
     style="font-size:12px;fill:#006bb1;fill-opacity:1;fill-rule:nonzero;stroke:#ffffff;stroke-width:0.60000002;stroke-linecap:butt;stroke-linejoin:bevel;stroke-miterlimit:4;stroke-opacity:1;stroke-dasharray:none;marker-start:none"
     d="m 403.92727,82.267507 0.3342,-0.4446 14.44674,1.74817 5.63436,4.11005 0.4236,5.001 12.19182,10.964283 4.91208,2.93808 0.60252,0.1986 0.4044,-0.2952 -1.77174,7.42938 -4.33116,5.70079 -1.31442,0.17579 -5.9901,-2.28149 -0.74682,-2.44123 -3.05388,-2.22702 -7.8702,-3.71034 -19.31472,-2.85702 5.44398,-24.008763"
     id="37083"
     inkscape:label="Halifax"
     inkscape:connector-curvature="0" />
  <path
     style="font-size:12px;fill:#006bb1;fill-opacity:1;fill-rule:nonzero;stroke:#ffffff;stroke-width:0.60000002;stroke-linecap:butt;stroke-linejoin:bevel;stroke-miterlimit:4;stroke-opacity:1;stroke-dasharray:none;marker-start:none"
     d="m 436.77343,119.61769 4.05912,14.2377 -2.52012,-0.91764 -4.96908,2.77788 -1.58688,2.01576 -2.08656,2.03754 -7.55568,6.24246 -3.87372,-3.92124 -2.01558,-6.01452 -5.32962,-4.25567 1.96608,-6.68784 4.25604,-12.30114 0.68058,-3.69768 7.8702,3.71033 3.05388,2.22702 0.74682,2.44123 5.9901,2.28149 1.31442,-0.17579"
     id="37065"
     inkscape:label="Edgecombe"
     inkscape:connector-curvature="0" />
  <path
     style="font-size:12px;fill:#006bb1;fill-opacity:1;fill-rule:nonzero;stroke:#ffffff;stroke-width:0.60000002;stroke-linecap:butt;stroke-linejoin:bevel;stroke-miterlimit:4;stroke-opacity:1;stroke-dasharray:none;marker-start:none"
     d="m 410.89531,131.81995 5.32962,4.25568 2.01558,6.01452 3.87372,3.92124 -2.32908,2.08272 -7.33338,6.6063 -15.09294,-0.1842 -3.87642,-1.1838 -2.40738,-6.51084 -2.26494,-3.2022 22.08522,-11.79972"
     id="37195"
     inkscape:label="Wilson"
     inkscape:connector-curvature="0" />
  <path
     style="font-size:12px;fill:#006bb1;fill-opacity:1;fill-rule:nonzero;stroke:#ffffff;stroke-width:0.60000002;stroke-linecap:butt;stroke-linejoin:bevel;stroke-miterlimit:4;stroke-opacity:1;stroke-dasharray:none;marker-start:none"
     d="m 419.78515,148.09411 15.02442,16.76466 -5.54604,3.70968 -4.24836,2.4717 -2.13372,0.62574 -0.5682,0.036 -0.95184,-1.43982 -6.95646,0.153 -1.953,-15.71532 7.33338,-6.6063"
     id="37079"
     inkscape:label="Greene"
     inkscape:connector-curvature="0" />
  <path
     style="font-size:12px;fill:#006bb1;fill-opacity:1;fill-rule:nonzero;stroke:#ffffff;stroke-width:0.60000002;stroke-linecap:butt;stroke-linejoin:bevel;stroke-miterlimit:4;stroke-opacity:1;stroke-dasharray:none;marker-start:none"
     d="m 440.52577,171.26965 -4.71834,8.98464 -3.30678,-0.9234 1.30518,5.5893 -0.0996,0.501 -5.21298,7.52316 -7.81416,5.39508 -7.23318,-12.87744 0.9588,-15.04638 6.95646,-0.153 0.95184,1.43982 0.5682,-0.036 2.13372,-0.62574 4.24836,-2.4717 5.54604,-3.70969 5.7162,6.41089"
     id="37107"
     inkscape:label="Lenoir"
     inkscape:connector-curvature="0" />
  <path
     style="font-size:12px;fill:#006bb1;fill-opacity:1;fill-rule:nonzero;stroke:#ffffff;stroke-width:0.60000002;stroke-linecap:butt;stroke-linejoin:bevel;stroke-miterlimit:4;stroke-opacity:1;stroke-dasharray:none;marker-start:none"
     d="m 435.80743,180.25429 0.6363,0.1728 17.71932,10.06242 1.76148,1.2792 2.52618,-1.09854 0.6765,0.2328 0.3168,0.51 0.64284,3.63222 0.3372,14.74092 1.48356,2.1069 -4.6839,1.67862 -3.77922,-7.01538 -0.2472,-0.4038 -3.06468,-3.1128 -1.89882,-0.5046 -17.56308,-2.42718 -6.58194,0.77424 -3.41004,-2.54274 7.81416,-5.39508 5.21298,-7.52316 0.0996,-0.501 -1.30518,-5.5893 3.30678,0.9234"
     id="37103"
     inkscape:label="Jones"
     inkscape:connector-curvature="0" />
  <path
     style="font-size:12px;fill:#006bb1;fill-opacity:1;fill-rule:nonzero;stroke:#ffffff;stroke-width:0.60000002;stroke-linecap:butt;stroke-linejoin:bevel;stroke-miterlimit:4;stroke-opacity:1;stroke-dasharray:none;marker-start:none"
     d="m 392.72629,185.62724 20.71968,-0.165 7.23318,12.87743 3.41004,2.54274 1.9506,3.67968 -1.3458,14.47206 -0.012,0.48901 0.3582,0.95807 -27.28962,1.3347 -0.909,0.8799 -0.4098,0.1614 -4.2669,-1.95245 2.7279,-13.03327 -1.48482,-13.71239 -0.68046,-8.53147"
     id="37061"
     inkscape:label="Duplin"
     inkscape:connector-curvature="0" />
  <path
     style="font-size:12px;fill:#006bb1;fill-opacity:1;fill-rule:nonzero;stroke:#ffffff;stroke-width:0.60000002;stroke-linecap:butt;stroke-linejoin:bevel;stroke-miterlimit:4;stroke-opacity:1;stroke-dasharray:none;marker-start:none"
     d="m 424.08919,200.8823 6.58194,-0.77424 17.56308,2.42718 1.89882,0.5046 3.06468,3.1128 0.2472,0.4038 3.77922,7.01538 4.0593,11.12442 -24.726,16.97088 -11.51814,-21.18625 -0.3582,-0.95807 0.012,-0.48901 1.3458,-14.47206 -1.9506,-3.67967"
     id="37133"
     inkscape:label="Onslow"
     inkscape:connector-curvature="0" />
  <path
     style="font-size:12px;fill:#006bb1;fill-opacity:1;fill-rule:nonzero;stroke:#ffffff;stroke-width:0.60000002;stroke-linecap:butt;stroke-linejoin:bevel;stroke-miterlimit:4;stroke-opacity:1;stroke-dasharray:none;marker-start:none"
     d="m 488.90119,193.24291 0.1908,0.5472 0.93774,1.32282 2.55024,0.0858 11.9931,0.3492 0.5532,9.41028 14.35098,-11.5845 -4.10652,6.96744 -15.13608,20.0709 -3.3984,1.49286 -2.0046,-1.00998 -6.26946,-2.1444 -3.21966,-0.0636 -2.71284,0.1704 -2.96112,0.4326 -5.56938,1.20492 -5.24106,1.37142 -0.5736,0.1632 -0.2346,0.0768 -1.71312,0.5628 -1.46868,0.5904 -2.51466,1.01532 -1.0698,0.4212 -4.0593,-11.12442 4.6839,-1.67862 8.43342,-1.15434 12.30954,-3.56244 3.96786,-2.01978 1.65984,-3.50784 0.5316,-1.70118 -0.3786,-0.4584 -3.53616,-3.03263 4.00572,-3.2139"
     id="37031"
     inkscape:label="Carteret"
     inkscape:connector-curvature="0" />
  <path
     style="font-size:12px;fill:#006bb1;fill-opacity:1;fill-rule:nonzero;stroke:#ffffff;stroke-width:0.60000002;stroke-linecap:butt;stroke-linejoin:bevel;stroke-miterlimit:4;stroke-opacity:1;stroke-dasharray:none;marker-start:none"
     d="m 489.55333,168.27512 6.78894,0.88367 1.17852,0.54421 0.72864,1.43322 0.3888,1.39236 0.0744,1.21566 -1.43676,3.86568 -2.77572,7.19982 -1.26906,2.12628 -4.33008,6.3066 -4.00572,3.2139 -3.05652,2.39412 -1.14558,0.3564 -2.42772,-0.006 -5.32746,-2.12328 -3.19218,-2.40966 -1.23318,-1.7271 -1.64346,-8.88258 1.18188,-3.55572 1.06518,-1.791 2.8494,-2.60448 3.30048,2.72142 13.27134,-2.36946 0.92898,-2.82144 0.096,-0.69534 -0.012,-4.66524"
     id="37137"
     inkscape:label="Pamlico"
     inkscape:connector-curvature="0" />
  <path
     style="font-size:12px;fill:#006bb1;fill-opacity:1;fill-rule:nonzero;stroke:#ffffff;stroke-width:0.60000002;stroke-linecap:butt;stroke-linejoin:bevel;stroke-miterlimit:4;stroke-opacity:1;stroke-dasharray:none;marker-start:none"
     d="m 452.69215,164.40451 19.27368,11.70066 -2.8494,2.60448 -1.06518,1.791 -1.18188,3.55572 1.64346,8.88258 1.23318,1.7271 3.19218,2.40966 5.32746,2.12328 2.42772,0.006 1.14558,-0.3564 3.05652,-2.39412 3.53616,3.03265 0.3786,0.45839 -0.5316,1.70118 -1.65984,3.50784 -3.96786,2.01978 -12.30954,3.56244 -8.43342,1.15434 -1.48356,-2.1069 -0.3372,-14.74092 -0.64284,-3.63222 -0.3168,-0.51 -0.6765,-0.2328 -2.52618,1.09854 -1.76148,-1.27919 -17.71932,-10.06242 -0.6363,-0.1728 4.71834,-8.98464 12.16638,-6.86514"
     id="37049"
     inkscape:label="Craven"
     inkscape:connector-curvature="0" />
  <path
     style="font-size:12px;fill:#006bb1;fill-opacity:1;fill-rule:nonzero;stroke:#ffffff;stroke-width:0.60000002;stroke-linecap:butt;stroke-linejoin:bevel;stroke-miterlimit:4;stroke-opacity:1;stroke-dasharray:none;marker-start:none"
     d="m 440.83255,133.85539 11.4159,6.05982 0.4434,24.4893 -12.16638,6.86514 -5.7162,-6.41088 -15.02442,-16.76466 2.32908,-2.08272 7.55568,-6.24246 2.08656,-2.03754 1.58688,-2.01576 4.96908,-2.77788 2.52012,0.91764"
     id="37147"
     inkscape:label="Pitt"
     inkscape:connector-curvature="0" />
  <path
     style="font-size:12px;fill:#006bb1;fill-opacity:1;fill-rule:nonzero;stroke:#ffffff;stroke-width:0.60000002;stroke-linecap:butt;stroke-linejoin:bevel;stroke-miterlimit:4;stroke-opacity:1;stroke-dasharray:none;marker-start:none"
     d="m 441.10459,113.91691 0.024,0.4332 0.4398,0.939 8.13798,8.65356 0.67188,0.5292 9.32772,4.95354 0.67584,0.2814 12.15018,0.177 4.76286,-1.85544 -4.4433,12.7356 -6.42378,3.26736 -2.10084,0.95742 -5.19912,-2.4387 -6.88008,-2.63466 -11.4159,-6.05982 -4.05912,-14.2377 4.33116,-5.70078"
     id="37117"
     inkscape:label="Martin"
     inkscape:connector-curvature="0" />
  <path
     style="font-size:12px;fill:#006bb1;fill-opacity:1;fill-rule:nonzero;stroke:#ffffff;stroke-width:0.60000002;stroke-linecap:butt;stroke-linejoin:bevel;stroke-miterlimit:4;stroke-opacity:1;stroke-dasharray:none;marker-start:none"
     d="m 479.06389,94.238107 8.20692,-4.86228 -1.30254,8.8995 1.71924,9.868263 0.204,0.2766 0.65286,0.4476 1.3323,0.396 2.46408,0.5346 5.5005,0.4332 -15.62538,5.2908 -3.49986,-17.188983 0.348,-4.09494"
     id="37041"
     inkscape:label="Chowan"
     inkscape:connector-curvature="0" />
  <path
     style="font-size:12px;fill:#006bb1;fill-opacity:1;fill-rule:nonzero;stroke:#ffffff;stroke-width:0.60000002;stroke-linecap:butt;stroke-linejoin:bevel;stroke-miterlimit:4;stroke-opacity:1;stroke-dasharray:none;marker-start:none"
     d="m 464.30185,75.838027 0.91566,1.87704 -0.1866,0.73734 -1.45818,2.88156 -1.05582,0.3204 0.4602,4.29745 0.1884,0.30479 0.85116,0.76572 1.6419,0.74172 5.3424,1.66506 1.65822,0.2292 6.4053,4.57998 -0.348,4.09494 -11.93256,0.83436 -6.73074,0.7113 -10.7847,0.417603 -1.6107,-0.2226 2.53314,-9.607683 3.63684,-8.34672 -4.86198,-5.53572 15.2262,-0.7365 0.1104,-0.006"
     id="37091"
     inkscape:label="Hertford"
     inkscape:connector-curvature="0" />
  <path
     style="font-size:12px;fill:#006bb1;fill-opacity:1;fill-rule:nonzero;stroke:#ffffff;stroke-width:0.60000002;stroke-linecap:butt;stroke-linejoin:bevel;stroke-miterlimit:4;stroke-opacity:1;stroke-dasharray:none;marker-start:none"
     d="m 478.71607,98.333047 3.49986,17.188983 -1.07412,5.97516 -3.84624,6.531 -4.76286,1.85544 -12.15018,-0.177 -0.67584,-0.2814 -9.32772,-4.95354 -0.67188,-0.52919 -8.13798,-8.65356 -0.4398,-0.939 -0.024,-0.4332 1.77174,-7.42938 4.78104,-6.41388 1.6107,0.2226 10.7847,-0.417603 6.73074,-0.7113 11.93256,-0.83436"
     id="37015"
     inkscape:label="Bertie"
     inkscape:connector-curvature="0" />
  <path
     style="font-size:12px;fill:#006bb1;fill-opacity:1;fill-rule:nonzero;stroke:#ffffff;stroke-width:0.60000002;stroke-linecap:butt;stroke-linejoin:bevel;stroke-miterlimit:4;stroke-opacity:1;stroke-dasharray:none;marker-start:none"
     d="m 487.32283,73.834627 3.28428,2.88276 3.04506,10.13629 -6.38136,2.52215 -8.20692,4.86229 -6.4053,-4.57998 -1.65822,-0.2292 -5.3424,-1.66507 -1.6419,-0.74172 -0.85116,-0.76572 -0.1884,-0.30479 -0.4602,-4.29745 1.05582,-0.3204 1.45818,-2.88156 0.1866,-0.73733 -0.91566,-1.87705 23.02098,-2.0034"
     id="37073"
     inkscape:label="Gates"
     inkscape:connector-curvature="0" />
  <path
     style="font-size:12px;fill:#006bb1;fill-opacity:1;fill-rule:nonzero;stroke:#ffffff;stroke-width:0.60000002;stroke-linecap:butt;stroke-linejoin:bevel;stroke-miterlimit:4;stroke-opacity:1;stroke-dasharray:none;marker-start:none"
     d="m 490.41895,73.608367 10.96206,-0.78066 10.2219,9.00204 6.7356,4.99512 0.3336,-0.2202 0.81552,0.1914 1.29306,0.72378 4.05504,4.05534 4.97934,9.507123 0.018,0.1962 -9.89646,-1.10112 -1.56606,-2.342463 -4.20792,-3.9129 -8.3127,-6.77574 -11.4666,-7.3146 -3.77328,-3.11388 -3.28428,-2.88276 3.09612,-0.2262"
     id="37029"
     inkscape:label="Camden"
     inkscape:connector-curvature="0" />
  <path
     style="font-size:12px;fill:#006bb1;fill-opacity:1;fill-rule:nonzero;stroke:#ffffff;stroke-width:0.60000002;stroke-linecap:butt;stroke-linejoin:bevel;stroke-miterlimit:4;stroke-opacity:1;stroke-dasharray:none;marker-start:none"
     d="m 490.60711,76.717387 3.77328,3.11388 11.4666,7.3146 8.3127,6.77574 4.20792,3.91291 1.56606,2.342463 -8.42964,5.68553 -5.5068,-4.77077 -6.86094,-5.315283 -5.00544,-7.78452 -0.4788,-1.13826 -3.04506,-10.13628"
     id="37139"
     inkscape:label="Pasquotank"
     inkscape:connector-curvature="0" />
  <path
     style="font-size:12px;fill:#006bb1;fill-opacity:1;fill-rule:nonzero;stroke:#ffffff;stroke-width:0.60000002;stroke-linecap:butt;stroke-linejoin:bevel;stroke-miterlimit:4;stroke-opacity:1;stroke-dasharray:none;marker-start:none"
     d="m 493.65217,86.853677 0.4788,1.13825 5.00544,7.78452 6.86094,5.315283 5.5068,4.77078 -13.66272,4.36872 -5.5005,-0.4332 -2.46408,-0.5346 -1.3323,-0.396 -0.65286,-0.4476 -0.204,-0.2766 -1.71924,-9.868263 1.30254,-8.8995 6.38136,-2.52216"
     id="37143"
     inkscape:label="Perquimans"
     inkscape:connector-curvature="0" />
  <path
     style="font-size:12px;fill:#006bb1;fill-opacity:1;fill-rule:nonzero;stroke:#ffffff;stroke-width:0.60000002;stroke-linecap:butt;stroke-linejoin:bevel;stroke-miterlimit:4;stroke-opacity:1;stroke-dasharray:none;marker-start:none"
     d="m 485.74543,139.94713 9.86016,9.69108 -5.69808,4.23984 -0.7512,0.3078 -0.2346,0.29461 -0.042,0.32099 0.1182,0.94303 1.4544,3.89579 1.73412,3.09852 0.87336,1.3503 -3.50394,4.18572 0.012,4.66524 -0.096,0.69534 -0.92898,2.82144 -13.27134,2.36946 -3.30048,-2.72142 -19.27368,-11.70066 -0.4434,-24.4893 6.88008,2.63466 5.19912,2.4387 2.10084,-0.95742 6.42378,-3.26736 12.89316,-0.81666"
     id="37013"
     inkscape:label="Beaufort"
     inkscape:connector-curvature="0" />
  <path
     style="font-size:12px;fill:#006bb1;fill-opacity:1;fill-rule:nonzero;stroke:#ffffff;stroke-width:0.60000002;stroke-linecap:butt;stroke-linejoin:bevel;stroke-miterlimit:4;stroke-opacity:1;stroke-dasharray:none;marker-start:none"
     d="m 481.14181,121.49719 0.048,0.054 1.16646,0.67608 0.3942,0.0846 3.66948,-0.474 6.18162,-1.47162 2.02686,-0.99186 0.75918,-0.80364 3.79452,-1.33511 0.5574,0.30719 0.5388,0.61362 1.55856,2.17782 -0.126,8.23225 -1.79886,3.90048 0.99522,7.04256 -15.1605,0.4368 -12.89316,0.81665 4.4433,-12.73559 3.84624,-6.531"
     id="37187"
     inkscape:label="Washington"
     inkscape:connector-curvature="0" />
  <path
     style="font-size:12px;fill:#006bb1;fill-opacity:1;fill-rule:nonzero;stroke:#ffffff;stroke-width:0.60000002;stroke-linecap:butt;stroke-linejoin:bevel;stroke-miterlimit:4;stroke-opacity:1;stroke-dasharray:none;marker-start:none"
     d="m 523.97443,140.09995 -23.0685,-0.5898 -0.99522,-7.04256 1.79886,-3.90048 0.126,-8.23224 5.22546,-2.74854 3.53688,-1.44336 2.28762,-0.5562 7.11786,-0.4884 2.46438,1.53984 0.6561,0.77508 0.93924,4.2486 -0.2742,0.97368 -0.3234,2.16612 0.036,4.29342 0.504,4.461 0.3108,5.2035 -0.3426,1.33968"
     id="37177"
     inkscape:label="Tyrrell"
     inkscape:connector-curvature="0" />
  <path
     id="37055"
     style="font-size:12px;fill:#006bb1;fill-opacity:1;fill-rule:nonzero;stroke:#ffffff;stroke-width:0.60000002;stroke-linecap:butt;stroke-linejoin:bevel;stroke-miterlimit:4;stroke-opacity:1;stroke-dasharray:none;marker-start:none"
     d="m 523.97443,140.09995 0.3426,-1.33968 -0.3108,-5.2035 -0.504,-4.461 -0.036,-4.29342 0.3234,-2.16612 0.2742,-0.97368 3.24192,-4.52478 0.5274,-0.4422 2.34114,-1.11803 1.22856,-0.2118 1.18338,-0.0606 0.6624,0.11579 2.60082,1.1226 1.87128,2.28169 3.49356,6.71543 0.549,1.24488 1.61088,9.5565 0.018,0.36 -0.63306,5.36988 -2.55186,3.82668 -1.32312,0.5016 -2.49606,0.4422 -2.04342,-0.77298 -10.36842,-5.96964 m 20.3763,-21.83004 1.02972,0.65712 0.97452,1.01292 1.22274,1.67112 0.83484,2.02338 0.414,3.14022 -0.3462,0.5334 -0.2502,0.012 -2.80008,-0.90786 -0.474,-0.471 -3.59244,-7.18344 -0.249,-0.60984 -0.006,-0.1644 0.5136,-0.3408 0.79992,-0.048 0.9153,0.1266 1.01484,0.546 m -0.5652,57.0336 1.20876,-0.4626 0.9669,-0.4662 5.31318,-2.68194 5.72688,-3.1335 0.3126,-1.21056 0.795,-7.81272 0.3492,-5.24556 0.4152,-7.78044 -0.297,-3.59051 -0.318,-1.81867 -0.552,-1.92366 -0.7953,-1.34549 -0.62772,-1.068 -2.1801,-7.10335 0.2628,-0.2364 0.3312,0.10021 0.1086,0.048 0.1026,0.17761 1.31994,2.15094 0.4752,1.07717 1.3605,3.78589 0.74208,2.69496 1.03716,3.58374 0.024,3.36516 -0.024,1.00224 -0.0894,4.76664 -0.4188,6.93192 -0.5184,5.63412 -0.97614,6.8004 -0.4182,0.65694 -0.71508,-0.129 -0.98106,-0.2202 -1.25496,0.1842 -1.85724,0.4218 -1.5429,0.68928 -6.92364,3.24672 -0.3648,-1.08612 m -7.27734,-80.098383 2.60796,5.848083 0.012,0.024 1.46838,3.04968 1.5354,2.69556 2.7195,4.25232 2.8092,5.13696 3.64176,6.65118 2.31372,4.95336 -0.4074,0.84612 -5.12418,-7.58286 -8.58954,-13.88862 -4.27176,-11.559603 1.28274,-0.4284"
     inkscape:label="Dare"
     inkscape:connector-curvature="0" />
  <path
     style="font-size:12px;fill:#006bb1;fill-opacity:1;fill-rule:nonzero;stroke:#ffffff;stroke-width:0.60000002;stroke-linecap:butt;stroke-linejoin:bevel;stroke-miterlimit:4;stroke-opacity:1;stroke-dasharray:none;marker-start:none"
     d="m 513.11929,71.996767 15.73254,-1.15716 7.65654,24.36552 -1.28274,0.4284 -4.6215,-14.376 -3.38784,-4.9383 -0.4554,-0.2568 -6.06372,-1.13478 -0.95172,0.2682 -0.234,0.246 -0.3336,0.5292 -0.09,0.91428 0.86364,1.8153 0.5382,0.8376 0.5508,0.3972 2.70618,1.71864 3.2643,4.8243 8.50446,18.098643 0.71328,2.33358 -0.0606,0.83358 -0.3744,-0.054 -2.37636,-1.3884 -0.77184,-0.68208 -1.3908,-1.85784 -1.425,-2.48652 -0.018,-0.1962 -4.97934,-9.507123 -4.05504,-4.05534 -1.29306,-0.72378 -0.81552,-0.1914 -0.3336,0.2202 -6.7356,-4.99512 -10.2219,-9.00204 11.73828,-0.83094"
     id="37053"
     inkscape:label="Currituck"
     inkscape:connector-curvature="0" />
  <path
     id="37095"
     style="font-size:12px;fill:#006bb1;fill-opacity:1;fill-rule:nonzero;stroke:#ffffff;stroke-width:0.60000002;stroke-linecap:butt;stroke-linejoin:bevel;stroke-miterlimit:4;stroke-opacity:1;stroke-dasharray:none;marker-start:none"
     d="m 523.97443,140.09995 10.36842,5.96964 -1.56834,0.87348 -3.19722,3.54372 -0.237,0.3552 -2.26524,4.1631 0.1164,0.91248 -0.1404,0.79824 -0.67968,2.41974 -0.1536,0.4998 -0.3744,0.5178 -2.77656,3.30498 -4.37802,3.62886 -0.4074,0.186 -15.74412,-0.64338 -0.5688,-0.048 -4.9539,-1.3206 -3.957,-1.17072 -0.87336,-1.3503 -1.73412,-3.09851 -1.4544,-3.8958 -0.1182,-0.94302 0.042,-0.321 0.2346,-0.2946 0.7512,-0.30781 5.69808,-4.23984 -9.86016,-9.69108 15.1605,-0.43679 23.0685,0.5898 m 19.81128,35.20355 0.3648,1.08612 -1.23582,0.4836 -1.22784,0.73285 -3.05904,1.84254 -4.34952,2.80901 -1.91952,1.26721 -2.24622,2.00939 -1.09416,1.21164 -0.69618,0.47941 -0.1512,-0.26341 0.1014,-0.2946 1.33392,-2.59584 1.31718,-1.42308 4.35774,-2.86847 6.54216,-3.90517 1.9626,-0.5706"
     inkscape:label="Hyde"
     inkscape:connector-curvature="0" />
</svg>
